<?xml version="1.0" encoding="utf-8"?>
<!-- Generator: Adobe Illustrator 24.0.0, SVG Export Plug-In . SVG Version: 6.00 Build 0)  -->
<svg version="1.1" id="Layer_1" xmlns="http://www.w3.org/2000/svg" xmlns:xlink="http://www.w3.org/1999/xlink" x="0px" y="0px"
	 viewBox="0 0 30 30" style="enable-background:new 0 0 30 30;" xml:space="preserve">
<style type="text/css">
	.st0{fill:none;stroke:#666666;stroke-width:0.5;}
	.st1{display:none;}
	.st2{display:inline;fill:none;stroke:#666666;stroke-width:0.5;}
</style>
<g>
	<path class="st0" d="M20.2,26.1h-6.1V14.3c0-1.4,0-2.7,0.1-3.9c-0.4,0.5-0.8,0.9-1.4,1.4l-2.5,2.1l-3.1-3.8l7.6-6.2h5.4V26.1z"/>
</g>
<g class="st1">
	<path class="st2" d="M23,15c0,3.9-0.7,6.8-2,8.7c-1.3,1.8-3.3,2.7-6.1,2.7c-2.7,0-4.7-1-6-2.9c-1.3-1.9-2-4.8-2-8.5
		c0-4,0.7-6.9,2-8.7c1.3-1.8,3.3-2.8,6.1-2.8c2.6,0,4.7,1,6,2.9C22.4,8.4,23,11.2,23,15z M12.9,15c0,2.5,0.2,4.2,0.5,5.2
		c0.3,0.9,0.8,1.4,1.6,1.4c0.8,0,1.3-0.5,1.6-1.5c0.3-1,0.5-2.7,0.5-5.1c0-2.5-0.2-4.2-0.5-5.2S15.7,8.4,15,8.4
		c-0.7,0-1.3,0.5-1.6,1.4C13.1,10.8,12.9,12.5,12.9,15z"/>
</g>
</svg>
