<svg xmlns="http://www.w3.org/2000/svg" viewBox="0 0 933.95 139.86"><defs><style>.cls-1{fill:#989898;}.cls-2{fill:#6f6f6e;}.cls-3{fill:#d9d9d9;}.cls-4{fill:#687b2b;}.cls-5{fill:#8cc63f;}</style></defs><title>Asset 2</title><g id="Layer_2" data-name="Layer 2"><g id="Side_Menu" data-name="Side Menu"><g id="M"><path class="cls-1" d="M821.75,120.82V72.12c-1.11,20.38-14.68,37.7-33.74,45.41v22.25A79.51,79.51,0,0,0,821.75,120.82Z"/><path class="cls-2" d="M821.39,74.65c-2.17,19-15.29,35-33.38,42.4v13.36C806.87,117,819.49,97.15,821.39,74.65Z"/><path class="cls-3" d="M821.76,72.19v-.07H787.88c-1.27,9.48-9.35,17-19.54,18.17v31.54a59.27,59.27,0,0,0,19.55-4.23C807,109.89,820.65,92.57,821.76,72.19Z"/><path class="cls-3" d="M877.86,72H844.2a70.78,70.78,0,0,1-22.45,48.77,79.63,79.63,0,0,1-33.74,19h60.84a104.83,104.83,0,0,0,8.33-9.67A99.69,99.69,0,0,0,877.86,72Z"/><path class="cls-1" d="M889.07,119.9a118.63,118.63,0,0,1-11.22-47.78V72a.22.22,0,0,1,0,.08,99.75,99.75,0,0,1-20.67,58.07q2.19,4.92,4.75,9.67h15.37A122.81,122.81,0,0,0,889.07,119.9Z"/><path class="cls-2" d="M862.34,139.78h-.42q-2.55-4.75-4.75-9.67a99.87,99.87,0,0,0,20.55-55.5c.09,1.88.13,3.77.13,5.67A118.58,118.58,0,0,1,862.34,139.78Z"/><path class="cls-3" d="M934,72.12H900.29a118.46,118.46,0,0,1-11.22,47.78,122.81,122.81,0,0,1-11.78,20h38.92A148.13,148.13,0,0,0,934,72.12Z"/></g><g id="M-2" data-name="M"><path class="cls-1" d="M788,.08V22.33c19.06,7.71,32.63,25,33.74,45.41V19A79.51,79.51,0,0,0,788,.08Z"/><path class="cls-4" d="M821.39,65.22c-2.17-19-15.29-35-33.38-42.41V9.45C806.87,22.82,819.49,42.71,821.39,65.22Z"/><path class="cls-5" d="M821.76,67.67v.07H787.88c-1.27-9.48-9.35-17-19.54-18.17V18a59.27,59.27,0,0,1,19.55,4.23C807,30,820.65,47.29,821.76,67.67Z"/><path class="cls-5" d="M877.86,67.82H844.2a70.78,70.78,0,0,0-22.45-48.77A79.51,79.51,0,0,0,788,.09h60.84a106.17,106.17,0,0,1,8.33,9.67A99.72,99.72,0,0,1,877.86,67.82Z"/><path class="cls-1" d="M889.07,20a118.68,118.68,0,0,0-11.22,47.79v.07a.15.15,0,0,0,0-.07A99.75,99.75,0,0,0,857.17,9.68q2.19-4.92,4.75-9.68h15.37A123.67,123.67,0,0,1,889.07,20Z"/><path class="cls-4" d="M862.34.08h-.42q-2.55,4.76-4.75,9.67a99.87,99.87,0,0,1,20.55,55.5c.09-1.88.13-3.77.13-5.67A118.58,118.58,0,0,0,862.34.08Z"/><path class="cls-5" d="M934,67.75H900.29A118.51,118.51,0,0,0,889.07,20,123.67,123.67,0,0,0,877.29,0h38.92A148.14,148.14,0,0,1,934,67.75Z"/></g><path class="cls-3" d="M50.69,122,26.9,47.31h-.72Q27.85,66.39,27.85,77v45H0V18.32H41.86L66.13,91.91h.63L90.55,18.32h41.94V122H103.61V76.52c0-2.36,0-5,.11-7.86s.44-9.95,1.08-21.2h-.72L80.61,122Z"/><path class="cls-3" d="M233,122l-5.73-19.43h-37.8L183.59,122H149.06L187,17.89H229L267.38,122Zm-12.26-42.4-5-17q-1.76-5.67-4.26-14.68T208.18,35q-.72,3.62-2.82,11.91T196,79.57Z"/><path class="cls-3" d="M367,122H276.31v-17.3l50.37-63.74H277.51V18.32h88.16V35.55L315.3,99.35H367Z"/><path class="cls-3" d="M513.3,122H476.14L465,76.81q-.79-2.84-2.51-11.27T460,51.43q-.63,4.6-2.06,11.45t-2.83,12.58Q453.7,81.21,443.51,122H406.35L377.55,18.32h30.31l12.66,52q4.29,17.22,5.88,27.43,1-7.23,3.7-19.63t5-20.57l10.26-39.2h29.13l9.94,39.2Q487,67,489.59,79.29t3.5,18.43q1-7.86,5.65-27.29l12.89-52.11H542Z"/><path class="cls-3" d="M630.13,122H561.06V18.32h69.07V40.79H592.49V57.1h34.85V79.57H592.49V99.14h37.64Z"/><path class="cls-3" d="M654.57,18.32h40.59q23.72,0,35.21,6.27t11.5,19.53a22.8,22.8,0,0,1-5,14.89A22.56,22.56,0,0,1,723.64,67v.71q10.83,2.55,15.68,8.51t4.85,15.46q0,14.1-11.89,22.22T699.85,122H654.57ZM686,58.09h9.47q6.75,0,10.46-2.48a8.28,8.28,0,0,0,3.7-7.37q0-8.73-14.8-8.72H686Zm0,20.49v21.77h11.06q14.71,0,14.72-11.06a9.12,9.12,0,0,0-3.94-7.94q-3.95-2.77-11.42-2.77Z"/></g></g></svg>