<?xml version="1.0" encoding="utf-8"?>
<!-- Generator: Adobe Illustrator 24.0.0, SVG Export Plug-In . SVG Version: 6.00 Build 0)  -->
<svg version="1.1" id="Layer_1" xmlns="http://www.w3.org/2000/svg" xmlns:xlink="http://www.w3.org/1999/xlink" x="0px" y="0px"
	 viewBox="0 0 250 45" style="enable-background:new 0 0 250 45;" xml:space="preserve">
<style type="text/css">
	.st0{fill:#D9D9D9;}
	.st1{fill:#697B2B;}
	.st2{fill:#8DC044;}
	.st3{fill:#4A494A;}
	.st4{fill:#F5F4F5;}
</style>
<g id="Logo_2_">
	<g>
		<g id="M_4_">
			<g id="XMLID_3_">
				<g>
				</g>
				<g>
				</g>
			</g>
			<path class="st0" d="M212.8,4v5.7c4.6,2,7.9,6.5,8.1,11.7V8.8C218.8,6.6,216,4.9,212.8,4z"/>
			<path class="st1" d="M220.9,20.7c-0.5-4.9-3.7-9-8-10.9V6.4C217.4,9.8,220.4,14.9,220.9,20.7z"/>
			<path class="st2" d="M221,21.4L221,21.4l-8.2,0c-0.3-2.4-2.3-4.4-4.7-4.7V8.6c1.7,0.1,3.3,0.5,4.7,1.1
				C217.4,11.7,220.7,16.1,221,21.4z"/>
			<path class="st2" d="M234.5,21.4h-8.1c-0.2-4.9-2.2-9.3-5.4-12.6c-2.2-2.3-5-4-8.1-4.9v0h14.6c0.7,0.8,1.4,1.6,2,2.5
				C232.5,10.7,234.3,15.8,234.5,21.4z"/>
			<path class="st0" d="M237.2,9.1c-1.7,3.8-2.6,7.9-2.7,12.3v0c0,0,0,0,0,0c-0.1-5.6-2-10.7-5-15c0.4-0.8,0.7-1.7,1.1-2.5h3.7
				C235.4,5.6,236.4,7.3,237.2,9.1z"/>
			<path class="st1" d="M230.7,4h-0.1c-0.4,0.8-0.8,1.6-1.1,2.5c2.9,4.1,4.7,9,4.9,14.3c0-0.5,0-1,0-1.5
				C234.5,13.6,233.1,8.3,230.7,4z"/>
			<path class="st2" d="M248,21.4h-8.1c-0.1-4.4-1-8.5-2.7-12.3c-0.8-1.8-1.7-3.5-2.8-5.1h9.4C246.4,9.2,247.9,15.1,248,21.4z"/>
		</g>
		<g id="M_3_">
			<g id="XMLID_2_">
				<g>
				</g>
				<g>
				</g>
			</g>
			<path class="st0" d="M221,36.2V23.6c-0.3,5.3-3.5,9.7-8.1,11.7V41C216,40.1,218.8,38.4,221,36.2z"/>
			<path class="st3" d="M220.9,24.3c-0.5,4.9-3.7,9-8,10.9v3.4C217.4,35.2,220.4,30.1,220.9,24.3z"/>
			<path class="st4" d="M221,23.6L221,23.6l-8.2,0c-0.3,2.4-2.3,4.4-4.7,4.7v8.1c1.7-0.1,3.3-0.5,4.7-1.1
				C217.4,33.3,220.7,28.9,221,23.6z"/>
			<path class="st4" d="M234.5,23.6h-8.1c-0.2,4.9-2.2,9.3-5.4,12.6c-2.2,2.3-5,4-8.1,4.9v0h14.6c0.7-0.8,1.4-1.6,2-2.5
				C232.5,34.3,234.3,29.2,234.5,23.6z"/>
			<path class="st0" d="M237.2,35.9c-1.7-3.8-2.6-7.9-2.7-12.3v0c0,0,0,0,0,0c-0.1,5.6-2,10.7-5,15c0.4,0.8,0.7,1.7,1.1,2.5h3.7
				C235.4,39.4,236.4,37.7,237.2,35.9z"/>
			<path class="st3" d="M230.7,41h-0.1c-0.4-0.8-0.8-1.6-1.1-2.5c2.9-4.1,4.7-9,4.9-14.3c0,0.5,0,1,0,1.5
				C234.5,31.4,233.1,36.7,230.7,41z"/>
			<path class="st4" d="M248,23.6h-8.1c-0.1,4.4-1,8.5-2.7,12.3c-0.8,1.8-1.7,3.5-2.8,5.1h9.4C246.4,35.8,247.9,29.9,248,23.6z"/>
		</g>
	</g>
	<g>
		<g>
			<path class="st2" d="M5.4,6.8l10,13.9l10-13.9h3.2v17.5h-3.4V12.8l-8.3,11.6H14L5.7,12.8v11.6H2.2V6.8H5.4z"/>
			<path class="st2" d="M50.5,6.8L63,24.4h-4.2l-2.9-4.1H42.2l-2.9,4.1h-4.2L47.6,6.8H50.5z M44.3,17.5h9.6l-4.8-6.7L44.3,17.5z"/>
			<path class="st2" d="M90.1,6.8h1.2v2.7l-10.5,7.2l0,0l0,0l-4.3,3L74,21.5h17.3v2.8H68.6v-2.7l10.5-7.2L86,9.7H69V6.8L90.1,6.8z"
				/>
			<path class="st2" d="M134.8,6.8l-9.2,17.5l0,0h-3.8l-5.9-12.7L110,24.4h-3.8l0,0L96.9,6.8h3.9l7.2,13.6l6.3-13.6h3l6.3,13.6
				l7.2-13.6H134.8z"/>
			<path class="st2" d="M163.5,6.8v2.8h-18.8v4.5h17.6V17h-17.6v4.5h18.8v2.8h-22.2V6.8H163.5z"/>
			<path class="st2" d="M188.8,6.8c1.1,0,2.3,0.3,3.2,1.1c0.9,0.8,1.6,2.1,1.6,3.6v0.8c0,1.1-0.3,2.1-0.9,2.9
				c0.9,0.8,1.5,2.1,1.5,3.6l0,0.8c0,1.5-0.6,2.8-1.6,3.6c-0.9,0.8-2.1,1.1-3.2,1.1h-18.6l0-17.5H188.8z M174.3,21.5h14.7
				c0.5,0,1-0.2,1.3-0.4c0.3-0.2,0.5-0.5,0.5-1.3l0-1.1c0-0.8-0.2-1.1-0.5-1.3c-0.3-0.2-0.7-0.4-1.3-0.4h-14.7L174.3,21.5z
				 M174.3,14.1h14c0.5,0,1-0.2,1.3-0.4c0.3-0.2,0.5-0.5,0.5-1.3v-1c0-0.8-0.2-1.1-0.5-1.3c-0.3-0.2-0.7-0.4-1.3-0.4h-14V14.1z"/>
		</g>
		<g>
			<path class="st4" d="M8.7,32.2c0.4,0,0.8,0.1,1.1,0.4c0.3,0.3,0.5,0.7,0.5,1.2v2.7c0,0.5-0.2,1-0.5,1.2c-0.3,0.3-0.7,0.4-1.1,0.4
				H2v-5.9H8.7z M3.2,37.2h5.4c0.2,0,0.3-0.1,0.4-0.1c0.1-0.1,0.2-0.2,0.2-0.4v-2.8c0-0.3-0.1-0.4-0.2-0.4c-0.1-0.1-0.3-0.1-0.4-0.1
				H3.2V37.2z"/>
			<path class="st4" d="M19.5,32.2v1h-6.4v1.5h6v1h-6v1.5h6.4v1H12v-5.9H19.5z"/>
			<path class="st4" d="M27,32.2c0.4,0,0.8,0.1,1.1,0.4c0.3,0.3,0.5,0.6,0.5,1.1h-1.2c0-0.2-0.1-0.3-0.2-0.4
				c-0.1-0.1-0.3-0.1-0.4-0.1h-4.1c-0.2,0-0.3,0.1-0.4,0.1c-0.1,0.1-0.2,0.2-0.2,0.4v0.3c0,0.3,0.1,0.4,0.2,0.4
				c0.1,0.1,0.3,0.1,0.4,0.1h4.5c0.4,0,0.8,0.1,1.1,0.4s0.5,0.7,0.5,1.2l0,0.3c0,0.5-0.2,1-0.5,1.2c-0.3,0.3-0.7,0.4-1.1,0.4h-4.6
				c-0.4,0-0.8-0.1-1.1-0.4c-0.3-0.3-0.5-0.7-0.5-1.2l0-0.2h1.2c0,0.1,0,0.2,0,0.2c0,0.3,0.1,0.4,0.2,0.4c0.1,0.1,0.3,0.1,0.4,0.1
				H27c0.2,0,0.3-0.1,0.4-0.1c0.1-0.1,0.2-0.2,0.2-0.4c0,0,0-0.3,0-0.5c0-0.2-0.1-0.3-0.2-0.3c-0.1-0.1-0.3-0.1-0.4-0.1h-4.5
				c-0.4,0-0.8-0.1-1.1-0.4C21.2,35,21,34.6,21,34.1l0,0v-0.2c0-0.5,0.2-1,0.5-1.2s0.7-0.4,1.1-0.4H27z"/>
			<path class="st4" d="M31.6,32.2v5.9h-1.2v-5.9H31.6z"/>
			<path class="st4" d="M40,32.2c0.4,0,0.8,0.1,1.1,0.4c0.3,0.3,0.5,0.7,0.5,1.2l0,0.4h-1.2v-0.5c0-0.3-0.1-0.4-0.2-0.4
				c-0.1-0.1-0.3-0.1-0.4-0.1H35c-0.2,0-0.3,0.1-0.4,0.1c-0.1,0.1-0.2,0.2-0.2,0.4v2.8c0,0.3,0.1,0.4,0.2,0.4
				c0.1,0.1,0.3,0.1,0.4,0.1h4.8c0.2,0,0.3-0.1,0.4-0.1c0.1-0.1,0.2-0.2,0.2-0.4c0,0,0-0.3,0-0.7h-3v-1h4.2l0,1.6
				c0,0.5-0.2,1-0.5,1.2c-0.3,0.3-0.7,0.4-1.1,0.4h-5.1c-0.4,0-0.8-0.1-1.1-0.4c-0.3-0.3-0.5-0.7-0.5-1.2v-2.7c0-0.5,0.2-1,0.5-1.2
				c0.3-0.3,0.7-0.4,1.1-0.4H40z"/>
			<path class="st4" d="M44.3,32.2l5.6,4.3v-4.3h1.2v5.9h-1l-5.6-4.3v4.3h-1.2v-5.9H44.3z"/>
			<path class="st4" d="M62.1,32.2l4.2,5.9h-1.4l-1-1.4h-4.6l-1,1.4h-1.4l4.2-5.9H62.1z M60,35.8h3.2l-1.6-2.3L60,35.8z"/>
			<path class="st4" d="M68.7,32.2l5.6,4.3v-4.3h1.2v5.9h-1l-5.6-4.3v4.3h-1.2v-5.9H68.7z"/>
			<path class="st4" d="M83.9,32.2c0.4,0,0.8,0.1,1.1,0.4c0.3,0.3,0.5,0.7,0.5,1.2v2.7c0,0.5-0.2,1-0.5,1.2
				c-0.3,0.3-0.7,0.4-1.1,0.4h-6.7v-5.9H83.9z M78.4,37.2h5.4c0.2,0,0.3-0.1,0.4-0.1c0.1-0.1,0.2-0.2,0.2-0.4v-2.8
				c0-0.3-0.1-0.4-0.2-0.4c-0.1-0.1-0.3-0.1-0.4-0.1h-5.4V37.2z"/>
			<path class="st4" d="M98.4,32.2c0.4,0,0.8,0.1,1.1,0.4c0.3,0.3,0.5,0.7,0.5,1.2v2.7c0,0.5-0.2,1-0.5,1.2
				c-0.3,0.3-0.7,0.4-1.1,0.4h-6.7v-5.9H98.4z M92.9,37.2h5.4c0.2,0,0.3-0.1,0.4-0.1c0.1-0.1,0.2-0.2,0.2-0.4v-2.8
				c0-0.3-0.1-0.4-0.2-0.4c-0.1-0.1-0.3-0.1-0.4-0.1h-5.4V37.2z"/>
			<path class="st4" d="M109.3,32.2v1h-6.4v1.5h6v1h-6v1.5h6.4v1h-7.5v-5.9H109.3z"/>
			<path class="st4" d="M114.6,38.2l-4.2-5.9h1.4l3.3,4.6l3.3-4.6h1.4l-4.2,5.9H114.6z"/>
			<path class="st4" d="M128.6,32.2v1h-6.4v1.5h6v1h-6v1.5h6.4v1h-7.5v-5.9H128.6z"/>
			<path class="st4" d="M131.3,32.2v5h5.8v1h-6.9v-5.9H131.3z"/>
			<path class="st4" d="M145.5,32.2c0.4,0,0.8,0.1,1.1,0.4c0.3,0.3,0.5,0.7,0.5,1.2v2.7c0,0.5-0.2,1-0.5,1.2
				c-0.3,0.3-0.7,0.4-1.1,0.4h-5.1c-0.4,0-0.8-0.1-1.1-0.4c-0.3-0.3-0.5-0.7-0.5-1.2v-2.7c0-0.5,0.2-1,0.5-1.2
				c0.3-0.3,0.7-0.4,1.1-0.4H145.5z M140.1,33.3c-0.1,0.1-0.2,0.2-0.2,0.4v2.8c0,0.3,0.1,0.4,0.2,0.4c0.1,0.1,0.3,0.1,0.4,0.1h4.8
				c0.2,0,0.3-0.1,0.4-0.1c0.1-0.1,0.2-0.2,0.2-0.4v-2.8c0-0.3-0.1-0.4-0.2-0.4c-0.1-0.1-0.3-0.1-0.4-0.1h-4.8
				C140.4,33.2,140.2,33.3,140.1,33.3z"/>
			<path class="st4" d="M154.9,32.2c0.4,0,0.8,0.1,1.1,0.4c0.3,0.3,0.5,0.7,0.5,1.2v0.7c0,0.5-0.2,1-0.5,1.2
				c-0.3,0.3-0.7,0.4-1.1,0.4H150v2h-1.2v-5.9H154.9z M150,35.2h4.7c0.2,0,0.3-0.1,0.4-0.1c0.1-0.1,0.2-0.2,0.2-0.4v-0.8
				c0-0.3-0.1-0.4-0.2-0.4c-0.1-0.1-0.3-0.1-0.4-0.1H150V35.2z"/>
			<path class="st4" d="M159.1,32.2l3.4,4.7l3.4-4.7h1.1v5.9h-1.2v-3.9l-2.8,3.9h-1l-2.8-3.9v3.9H158v-5.9H159.1z"/>
			<path class="st4" d="M176.2,32.2v1h-6.4v1.5h6v1h-6v1.5h6.4v1h-7.5v-5.9H176.2z"/>
			<path class="st4" d="M178.9,32.2l5.6,4.3v-4.3h1.2v5.9h-1l-5.6-4.3v4.3h-1.2v-5.9H178.9z"/>
			<path class="st4" d="M194.9,32.2v1h-3.4v5h-1.2v-5H187v-1H194.9z"/>
		</g>
	</g>
</g>
</svg>
