<?xml version="1.0" encoding="utf-8"?>
<!-- Generator: Adobe Illustrator 24.0.0, SVG Export Plug-In . SVG Version: 6.00 Build 0)  -->
<svg version="1.1" id="Layer_1" xmlns="http://www.w3.org/2000/svg" xmlns:xlink="http://www.w3.org/1999/xlink" x="0px" y="0px"
	 viewBox="0 0 200 26" style="enable-background:new 0 0 200 26;" xml:space="preserve">
<style type="text/css">
	.st0{fill:#989898;}
	.st1{fill:#687B2B;}
	.st2{fill:#93C01F;}
	.st3{fill:#6F6F6E;}
	.st4{fill:#D9D9D9;}
</style>
<g>
	<g>
		<g id="M_4_">
			<g id="XMLID_3_">
				<g>
				</g>
				<g>
				</g>
			</g>
			<path class="st0" d="M163.7,1v3.7c3,1.3,5.1,4.2,5.3,7.6V4.2C167.5,2.7,165.7,1.6,163.7,1z"/>
			<path class="st1" d="M168.8,11.9c-0.3-3.2-2.4-5.8-5.2-7.1V2.6C166.6,4.8,168.6,8.1,168.8,11.9z"/>
			<path class="st2" d="M168.9,12.3L168.9,12.3l-5.3,0c-0.2-1.6-1.5-2.8-3-3V4c1.1,0.1,2.1,0.3,3,0.7C166.6,6,168.7,8.9,168.9,12.3z
				"/>
			<path class="st2" d="M177.6,12.3h-5.2c-0.1-3.2-1.4-6-3.5-8.1c-1.4-1.5-3.2-2.6-5.3-3.2v0h9.5c0.5,0.5,0.9,1,1.3,1.6
				C176.4,5.4,177.6,8.7,177.6,12.3z"/>
			<path class="st0" d="M179.4,4.3c-1.1,2.4-1.7,5.1-1.7,8v0c0,0,0,0,0,0c-0.1-3.6-1.3-6.9-3.2-9.7c0.2-0.5,0.5-1.1,0.7-1.6h2.4
				C178.3,2,178.9,3.2,179.4,4.3z"/>
			<path class="st1" d="M175.2,1L175.2,1c-0.3,0.5-0.6,1.1-0.8,1.6c1.9,2.6,3,5.8,3.2,9.2c0-0.3,0-0.6,0-0.9
				C177.6,7.2,176.7,3.8,175.2,1z"/>
			<path class="st2" d="M186.4,12.3h-5.2c-0.1-2.8-0.7-5.5-1.7-8c-0.5-1.2-1.1-2.3-1.8-3.3h6.1C185.3,4.4,186.3,8.2,186.4,12.3z"/>
		</g>
		<g id="M_3_">
			<g id="XMLID_2_">
				<g>
				</g>
				<g>
				</g>
			</g>
			<path class="st0" d="M168.9,21.8v-8.1c-0.2,3.4-2.3,6.3-5.3,7.6V25C165.7,24.4,167.5,23.3,168.9,21.8z"/>
			<path class="st3" d="M168.8,14.1c-0.3,3.2-2.4,5.8-5.2,7.1v2.2C166.6,21.2,168.6,17.9,168.8,14.1z"/>
			<path class="st4" d="M168.9,13.7L168.9,13.7l-5.3,0c-0.2,1.6-1.5,2.8-3,3V22c1.1-0.1,2.1-0.3,3-0.7
				C166.6,20,168.7,17.1,168.9,13.7z"/>
			<path class="st4" d="M177.6,13.7h-5.2c-0.1,3.2-1.4,6-3.5,8.1c-1.4,1.5-3.2,2.6-5.3,3.2v0h9.5c0.5-0.5,0.9-1,1.3-1.6
				C176.4,20.6,177.6,17.3,177.6,13.7z"/>
			<path class="st0" d="M179.4,21.7c-1.1-2.4-1.7-5.1-1.7-8v0c0,0,0,0,0,0c-0.1,3.6-1.3,6.9-3.2,9.7c0.2,0.5,0.5,1.1,0.7,1.6h2.4
				C178.3,24,178.9,22.8,179.4,21.7z"/>
			<path class="st3" d="M175.2,25L175.2,25c-0.3-0.5-0.6-1.1-0.8-1.6c1.9-2.6,3-5.8,3.2-9.2c0,0.3,0,0.6,0,0.9
				C177.6,18.8,176.7,22.2,175.2,25z"/>
			<path class="st4" d="M186.4,13.7h-5.2c-0.1,2.8-0.7,5.5-1.7,8c-0.5,1.2-1.1,2.3-1.8,3.3h6.1C185.3,21.6,186.3,17.8,186.4,13.7z"
				/>
		</g>
	</g>
	<g>
		<g>
			<path class="st4" d="M5.8,20.2c0.2,0,0.4,0.1,0.6,0.2s0.3,0.4,0.3,0.6v1.4c0,0.3-0.1,0.5-0.3,0.6S6,23.3,5.8,23.3H2.3v-3.1H5.8z
				 M2.9,22.8h2.8c0.1,0,0.2,0,0.2-0.1c0,0,0.1-0.1,0.1-0.2c0,0,0-1.5,0-1.5c0-0.1,0-0.2-0.1-0.2c-0.1,0-0.1-0.1-0.2-0.1H2.9V22.8z"
				/>
			<path class="st4" d="M13.9,20.2v0.5h-3.3v0.8h3.1V22h-3.1v0.8h3.3v0.5H9.9v-3.1H13.9z"/>
			<path class="st4" d="M20.2,20.2c0.2,0,0.4,0.1,0.6,0.2c0.2,0.1,0.3,0.3,0.3,0.6h-0.6c0-0.1,0-0.2-0.1-0.2c0,0-0.1-0.1-0.2-0.1
				h-2.2c-0.1,0-0.2,0-0.2,0.1c0,0-0.1,0.1-0.1,0.2v0.2c0,0.1,0,0.2,0.1,0.2c0,0,0.1,0.1,0.2,0.1h2.4c0.2,0,0.4,0.1,0.6,0.2
				c0.2,0.1,0.3,0.4,0.3,0.6l0,0.2c0,0.3-0.1,0.5-0.3,0.6c-0.2,0.1-0.4,0.2-0.6,0.2h-2.4c-0.2,0-0.4-0.1-0.6-0.2
				C17.1,23,17,22.8,17,22.5l0-0.1h0.6c0,0.1,0,0.1,0,0.1c0,0.1,0,0.2,0.1,0.2c0,0,0.1,0.1,0.2,0.1h2.3c0.1,0,0.2,0,0.2-0.1
				c0,0,0.1-0.1,0.1-0.2c0,0,0-0.2,0-0.3c0-0.1,0-0.1-0.1-0.2c0,0-0.1-0.1-0.2-0.1h-2.3c-0.2,0-0.4-0.1-0.6-0.2
				c-0.2-0.1-0.3-0.4-0.3-0.6h0v-0.1c0-0.3,0.1-0.5,0.3-0.6c0.2-0.1,0.4-0.2,0.6-0.2H20.2z"/>
			<path class="st4" d="M24.9,20.2v3.1h-0.6v-3.1H24.9z"/>
			<path class="st4" d="M31.7,20.2c0.2,0,0.4,0.1,0.6,0.2s0.3,0.4,0.3,0.6l0,0.2h-0.6V21c0-0.1,0-0.2-0.1-0.2c0,0-0.1-0.1-0.2-0.1
				h-2.5c-0.1,0-0.2,0-0.2,0.1c0,0-0.1,0.1-0.1,0.2v1.5c0,0.1,0,0.2,0.1,0.2c0,0,0.1,0.1,0.2,0.1h2.5c0.1,0,0.2,0,0.2-0.1
				c0,0,0.1-0.1,0.1-0.2c0,0,0-0.1,0-0.4h-1.6v-0.5h2.2l0,0.8c0,0.3-0.1,0.5-0.3,0.6c-0.2,0.1-0.4,0.2-0.6,0.2H29
				c-0.2,0-0.4-0.1-0.6-0.2c-0.2-0.1-0.3-0.4-0.3-0.6v-1.4c0-0.3,0.1-0.5,0.3-0.6c0.2-0.1,0.4-0.2,0.6-0.2H31.7z"/>
			<path class="st4" d="M36.3,20.2l2.9,2.3v-2.3h0.6v3.1h-0.5l-2.9-2.3v2.3h-0.6v-3.1H36.3z"/>
			<path class="st4" d="M50.4,20.2l2.2,3.1h-0.8l-0.5-0.7h-2.4l-0.5,0.7h-0.8l2.2-3.1H50.4z M49.3,22.1H51l-0.9-1.2L49.3,22.1z"/>
			<path class="st4" d="M56.2,20.2l2.9,2.3v-2.3h0.6v3.1h-0.5l-2.9-2.3v2.3h-0.6v-3.1H56.2z"/>
			<path class="st4" d="M66.5,20.2c0.2,0,0.4,0.1,0.6,0.2s0.3,0.4,0.3,0.6v1.4c0,0.3-0.1,0.5-0.3,0.6s-0.4,0.2-0.6,0.2H63v-3.1H66.5
				z M63.6,22.8h2.8c0.1,0,0.2,0,0.2-0.1c0,0,0.1-0.1,0.1-0.2c0,0,0-1.5,0-1.5c0-0.1,0-0.2-0.1-0.2c-0.1,0-0.1-0.1-0.2-0.1h-2.8
				V22.8z"/>
			<path class="st4" d="M78.9,20.2c0.2,0,0.4,0.1,0.6,0.2c0.2,0.1,0.3,0.4,0.3,0.6v1.4c0,0.3-0.1,0.5-0.3,0.6
				c-0.2,0.1-0.4,0.2-0.6,0.2h-3.5v-3.1H78.9z M76,22.8h2.8c0.1,0,0.2,0,0.2-0.1c0,0,0.1-0.1,0.1-0.2c0,0,0-1.5,0-1.5
				c0-0.1,0-0.2-0.1-0.2c0,0-0.1-0.1-0.2-0.1H76V22.8z"/>
			<path class="st4" d="M86.9,20.2v0.5h-3.3v0.8h3.1V22h-3.1v0.8h3.3v0.5H83v-3.1H86.9z"/>
			<path class="st4" d="M92.1,23.3l-2.2-3.1h0.8l1.7,2.4l1.7-2.4h0.8l-2.2,3.1H92.1z"/>
			<path class="st4" d="M101.8,20.2v0.5h-3.3v0.8h3.1V22h-3.1v0.8h3.3v0.5h-3.9v-3.1H101.8z"/>
			<path class="st4" d="M105.6,20.2v2.6h3v0.5H105v-3.1H105.6z"/>
			<path class="st4" d="M115.4,20.2c0.2,0,0.4,0.1,0.6,0.2c0.2,0.1,0.3,0.4,0.3,0.6v1.4c0,0.3-0.1,0.5-0.3,0.6
				c-0.2,0.1-0.4,0.2-0.6,0.2h-2.7c-0.2,0-0.4-0.1-0.6-0.2c-0.2-0.1-0.3-0.4-0.3-0.6v-1.4c0-0.3,0.1-0.5,0.3-0.6
				c0.2-0.1,0.4-0.2,0.6-0.2H115.4z M112.6,20.8c0,0-0.1,0.1-0.1,0.2v1.5c0,0.1,0,0.2,0.1,0.2c0,0,0.1,0.1,0.2,0.1h2.5
				c0.1,0,0.2,0,0.2-0.1c0,0,0.1-0.1,0.1-0.2c0,0,0-1.5,0-1.5c0-0.1,0-0.2-0.1-0.2c0,0-0.1-0.1-0.2-0.1h-2.5
				C112.7,20.7,112.6,20.8,112.6,20.8z"/>
			<path class="st4" d="M122.7,20.2c0.2,0,0.4,0.1,0.6,0.2c0.2,0.1,0.3,0.4,0.3,0.6v0.4c0,0.3-0.1,0.5-0.3,0.6
				c-0.2,0.1-0.4,0.2-0.6,0.2h-2.6v1.1h-0.6v-3.1H122.7z M120.1,21.8h2.5c0.1,0,0.2,0,0.2-0.1c0,0,0.1-0.1,0.1-0.2V21
				c0-0.1,0-0.2-0.1-0.2c0,0-0.1-0.1-0.2-0.1h-2.5V21.8z"/>
			<path class="st4" d="M127.2,20.2l1.8,2.5l1.8-2.5h0.6v3.1h-0.6v-2.1l-1.5,2.1h-0.5l-1.5-2.1v2.1h-0.6v-3.1H127.2z"/>
			<path class="st4" d="M138.6,20.2v0.5h-3.3v0.8h3.1V22h-3.1v0.8h3.3v0.5h-3.9v-3.1H138.6z"/>
			<path class="st4" d="M142.3,20.2l2.9,2.3v-2.3h0.6v3.1h-0.5l-2.9-2.3v2.3h-0.6v-3.1H142.3z"/>
			<path class="st4" d="M153.1,20.2v0.5h-1.8v2.6h-0.6v-2.6h-1.8v-0.5H153.1z"/>
		</g>
		<g>
			<path class="st2" d="M4.5,2.7l6.9,9.6l6.9-9.6h2.2v12.1h-2.4v-8l-5.7,8h-2l-5.7-8v8H2.3V2.7H4.5z"/>
			<path class="st2" d="M39.3,2.7l8.6,12.1H45l-2-2.8h-9.4l-2,2.8h-2.9l8.6-12.1H39.3z M35,10h6.6l-3.3-4.6L35,10z"/>
			<path class="st2" d="M70.3,2.7h0.8v1.9l-7.2,5l0,0l0,0l-3,2l-1.7,1.2h11.9v2H55.4v-1.9l7.2-5l4.7-3.2H55.7v-2L70.3,2.7z"/>
			<path class="st2" d="M104.7,2.7l-6.4,12.1l0,0h-2.6L91.7,6l-4.1,8.7H85l0,0L78.6,2.7h2.7l5,9.4l4.4-9.4h2.1l4.4,9.4l5-9.4H104.7z
				"/>
			<path class="st2" d="M128.2,4.6v-2h-15.3v2H128.2z M112.9,7.7h13.7v2h-13.7V7.7z M128.2,12.8v2h-15.3v-2H128.2z"/>
			<path class="st2" d="M149.3,2.7c0.8,0,1.6,0.2,2.2,0.8s1.1,1.5,1.1,2.5v0.5c0,0.8-0.2,1.4-0.6,2c0.6,0.6,1.1,1.4,1.1,2.5l0,0.6
				c0,1-0.4,1.9-1.1,2.5c-0.7,0.6-1.5,0.8-2.2,0.8H137l0-12.1H149.3z M139.4,12.8h10.2c0.4,0,0.7-0.1,0.9-0.3
				c0.2-0.2,0.3-0.4,0.3-0.9l0-0.8c0-0.5-0.1-0.7-0.3-0.9c-0.2-0.2-0.5-0.3-0.9-0.3h-10.1L139.4,12.8z M139.4,7.7h9.7
				c0.4,0,0.7-0.1,0.9-0.3c0.2-0.2,0.3-0.4,0.3-0.9V5.8c0-0.5-0.1-0.7-0.3-0.9c-0.2-0.2-0.5-0.3-0.9-0.3h-9.7V7.7z"/>
		</g>
	</g>
</g>
</svg>
