<?xml version="1.0" encoding="utf-8"?>
<!-- Generator: Adobe Illustrator 24.0.0, SVG Export Plug-In . SVG Version: 6.00 Build 0)  -->
<svg version="1.1" id="Layer_1" xmlns="http://www.w3.org/2000/svg" xmlns:xlink="http://www.w3.org/1999/xlink" x="0px" y="0px"
	 viewBox="0 0 150 30" style="enable-background:new 0 0 150 30;" xml:space="preserve">
<style type="text/css">
	.st0{fill:#D9D9D9;}
	.st1{fill:#93C01F;}
</style>
<g>
	<g>
		<path class="st0" d="M11.4,23c0.2,0,0.4,0,0.5,0.2c0.1,0.1,0.2,0.3,0.2,0.6V25c0,0.2-0.1,0.4-0.2,0.6c-0.1,0.1-0.3,0.2-0.5,0.2
			H8.3V23H11.4z M8.8,25.3h2.5c0.1,0,0.2,0,0.2-0.1c0,0,0.1-0.1,0.1-0.2c0,0,0-1.3,0-1.3c0-0.1,0-0.2-0.1-0.2c0,0-0.1-0.1-0.2-0.1
			H8.8V25.3z"/>
		<path class="st0" d="M18.5,23v0.4h-3v0.7h2.8v0.4h-2.8v0.7h3v0.4H15V23H18.5z"/>
		<path class="st0" d="M24.1,23c0.2,0,0.4,0,0.5,0.2c0.1,0.1,0.2,0.3,0.2,0.5h-0.5c0-0.1,0-0.1-0.1-0.2c0,0-0.1-0.1-0.2-0.1h-1.9
			c-0.1,0-0.2,0-0.2,0.1c0,0-0.1,0.1-0.1,0.2v0.1c0,0.1,0,0.2,0.1,0.2c0,0,0.1,0.1,0.2,0.1h2.1c0.2,0,0.4,0,0.5,0.2
			c0.1,0.1,0.2,0.3,0.2,0.6l0,0.1c0,0.2-0.1,0.4-0.2,0.6c-0.1,0.1-0.3,0.2-0.5,0.2H22c-0.2,0-0.4,0-0.5-0.2
			c-0.1-0.1-0.2-0.3-0.2-0.6l0-0.1h0.5c0,0.1,0,0.1,0,0.1c0,0.1,0,0.2,0.1,0.2c0,0,0.1,0.1,0.2,0.1h2c0.1,0,0.2,0,0.2-0.1
			c0,0,0.1-0.1,0.1-0.2c0,0,0-0.2,0-0.2c0-0.1,0-0.1-0.1-0.2c0,0-0.1-0.1-0.2-0.1H22c-0.2,0-0.4,0-0.5-0.2c-0.1-0.1-0.2-0.3-0.2-0.5
			h0v-0.1c0-0.2,0.1-0.4,0.2-0.6C21.6,23,21.8,23,22,23H24.1z"/>
		<path class="st0" d="M28.3,23v2.8h-0.5V23H28.3z"/>
		<path class="st0" d="M34.3,23c0.2,0,0.4,0,0.5,0.2c0.1,0.1,0.2,0.3,0.2,0.6l0,0.2h-0.5v-0.2c0-0.1,0-0.2-0.1-0.2
			c0,0-0.1-0.1-0.2-0.1H32c-0.1,0-0.2,0-0.2,0.1c0,0-0.1,0.1-0.1,0.2V25c0,0.1,0,0.2,0.1,0.2c0,0,0.1,0.1,0.2,0.1h2.2
			c0.1,0,0.2,0,0.2-0.1c0,0,0.1-0.1,0.1-0.2c0,0,0-0.1,0-0.3h-1.4v-0.4H35l0,0.7c0,0.2-0.1,0.4-0.2,0.6c-0.1,0.1-0.3,0.2-0.5,0.2
			h-2.4c-0.2,0-0.4,0-0.5-0.2c-0.1-0.1-0.2-0.3-0.2-0.6v-1.3c0-0.2,0.1-0.4,0.2-0.6c0.1-0.1,0.3-0.2,0.5-0.2H34.3z"/>
		<path class="st0" d="M38.4,23l2.6,2v-2h0.5v2.8H41l-2.6-2v2h-0.5V23H38.4z"/>
		<path class="st0" d="M50.8,23l2,2.8h-0.7l-0.5-0.6h-2.1L49,25.8h-0.7l2-2.8H50.8z M49.8,24.7h1.5l-0.8-1.1L49.8,24.7z"/>
		<path class="st0" d="M55.9,23l2.6,2v-2h0.5v2.8h-0.5l-2.6-2v2h-0.5V23H55.9z"/>
		<path class="st0" d="M65.1,23c0.2,0,0.4,0,0.5,0.2c0.1,0.1,0.2,0.3,0.2,0.6V25c0,0.2-0.1,0.4-0.2,0.6c-0.1,0.1-0.3,0.2-0.5,0.2H62
			V23H65.1z M62.5,25.3H65c0.1,0,0.2,0,0.2-0.1c0,0,0.1-0.1,0.1-0.2c0,0,0-1.3,0-1.3c0-0.1,0-0.2-0.1-0.2c0,0-0.1-0.1-0.2-0.1h-2.5
			V25.3z"/>
		<path class="st0" d="M76,23c0.2,0,0.4,0,0.5,0.2c0.1,0.1,0.2,0.3,0.2,0.6V25c0,0.2-0.1,0.4-0.2,0.6c-0.1,0.1-0.3,0.2-0.5,0.2h-3.1
			V23H76z M73.5,25.3H76c0.1,0,0.2,0,0.2-0.1c0,0,0.1-0.1,0.1-0.2c0,0,0-1.3,0-1.3c0-0.1,0-0.2-0.1-0.2c0,0-0.1-0.1-0.2-0.1h-2.5
			V25.3z"/>
		<path class="st0" d="M83.1,23v0.4h-3v0.7H83v0.4h-2.8v0.7h3v0.4h-3.5V23H83.1z"/>
		<path class="st0" d="M87.7,25.8l-2-2.8h0.7l1.5,2.1l1.5-2.1h0.7l-2,2.8H87.7z"/>
		<path class="st0" d="M96.3,23v0.4h-3v0.7h2.8v0.4h-2.8v0.7h3v0.4h-3.5V23H96.3z"/>
		<path class="st0" d="M99.7,23v2.3h2.7v0.4h-3.2V23H99.7z"/>
		<path class="st0" d="M108.3,23c0.2,0,0.4,0,0.5,0.2c0.1,0.1,0.2,0.3,0.2,0.6V25c0,0.2-0.1,0.4-0.2,0.6c-0.1,0.1-0.3,0.2-0.5,0.2
			H106c-0.2,0-0.4,0-0.5-0.2c-0.1-0.1-0.2-0.3-0.2-0.6v-1.3c0-0.2,0.1-0.4,0.2-0.6c0.1-0.1,0.3-0.2,0.5-0.2H108.3z M105.8,23.5
			c0,0-0.1,0.1-0.1,0.2V25c0,0.1,0,0.2,0.1,0.2c0,0,0.1,0.1,0.2,0.1h2.2c0.1,0,0.2,0,0.2-0.1c0,0,0.1-0.1,0.1-0.2c0,0,0-1.3,0-1.3
			c0-0.1,0-0.2-0.1-0.2c0,0-0.1-0.1-0.2-0.1H106C106,23.4,105.9,23.5,105.8,23.5z"/>
		<path class="st0" d="M114.8,23c0.2,0,0.4,0,0.5,0.2c0.1,0.1,0.2,0.3,0.2,0.6v0.3c0,0.2-0.1,0.4-0.2,0.6c-0.1,0.1-0.3,0.2-0.5,0.2
			h-2.3v0.9H112V23H114.8z M112.5,24.4h2.2c0.1,0,0.2,0,0.2-0.1s0.1-0.1,0.1-0.2v-0.4c0-0.1,0-0.2-0.1-0.2c0,0-0.1-0.1-0.2-0.1h-2.2
			V24.4z"/>
		<path class="st0" d="M118.8,23l1.6,2.2L122,23h0.5v2.8h-0.5v-1.8l-1.3,1.8h-0.5l-1.3-1.8v1.8h-0.5V23H118.8z"/>
		<path class="st0" d="M128.9,23v0.4h-3v0.7h2.8v0.4h-2.8v0.7h3v0.4h-3.5V23H128.9z"/>
		<path class="st0" d="M132.2,23l2.6,2v-2h0.5v2.8h-0.5l-2.6-2v2h-0.5V23H132.2z"/>
		<path class="st0" d="M141.7,23v0.4h-1.6v2.3h-0.5v-2.3H138V23H141.7z"/>
	</g>
	<g>
		<path class="st1" d="M5.9,4.2l7,9.7l7-9.7h2.2v12.2h-2.4V8.4l-5.8,8.1h-2L6.1,8.4v8.1H3.7V4.2H5.9z"/>
		<path class="st1" d="M38.4,4.2l8.7,12.2h-3l-2-2.8h-9.5l-2,2.8h-3l8.7-12.2H38.4z M34,11.6h6.7L37.3,7L34,11.6z"/>
		<path class="st1" d="M67.6,4.2h0.8v1.9l-7.3,5l0,0l0,0l-3,2.1l-1.7,1.2h12.1v2H52.7v-1.9L60,9.5l4.8-3.3H52.9v-2L67.6,4.2z"/>
		<path class="st1" d="M99.8,4.2l-6.4,12.2l0,0h-2.7l-4.1-8.8l-4.1,8.8h-2.7l0,0L73.4,4.2h2.7l5,9.5l4.4-9.5h2.1l4.4,9.5l5-9.5H99.8
			z"/>
		<path class="st1" d="M122.2,6.2v-2h-15.5v2H122.2z M106.7,9.3h13.8v2h-13.8V9.3z M122.2,14.5v2h-15.5v-2H122.2z"/>
		<path class="st1" d="M142.5,4.2c0.8,0,1.6,0.2,2.2,0.8s1.1,1.5,1.1,2.5v0.5c0,0.8-0.2,1.5-0.6,2c0.6,0.6,1.1,1.5,1.1,2.5l0,0.6
			c0,1-0.4,2-1.1,2.5c-0.7,0.6-1.5,0.8-2.2,0.8H130l0-12.2H142.5z M132.4,14.5h10.3c0.4,0,0.7-0.1,0.9-0.3c0.2-0.2,0.3-0.4,0.3-0.9
			l0-0.8c0-0.5-0.1-0.8-0.3-0.9c-0.2-0.2-0.5-0.3-0.9-0.3h-10.2L132.4,14.5z M132.4,9.3h9.8c0.4,0,0.7-0.1,0.9-0.3
			c0.2-0.2,0.3-0.4,0.3-0.9V7.4c0-0.5-0.1-0.8-0.3-0.9c-0.2-0.2-0.5-0.3-0.9-0.3h-9.8V9.3z"/>
	</g>
</g>
</svg>
