<svg xmlns="http://www.w3.org/2000/svg" viewBox="0 0 102.63 61.83"><defs><style>.cls-1{fill:#989898;}.cls-2{fill:#6f6f6e;}.cls-3{fill:#d9d9d9;}.cls-4{fill:#687b2b;}.cls-5{fill:#8cc63f;}</style></defs><title>Asset 1</title><g id="Layer_2" data-name="Layer 2"><g id="Side_Menu" data-name="Side Menu"><g id="M"><path class="cls-1" d="M15.23,34.45V20.56a15,15,0,0,1-9.62,13v6.35A22.77,22.77,0,0,0,15.23,34.45Z"/><path class="cls-2" d="M15.13,21.28A15.08,15.08,0,0,1,5.61,33.37v3.81A21.9,21.9,0,0,0,15.13,21.28Z"/><path class="cls-3" d="M15.23,20.58v0H5.57A6.19,6.19,0,0,1,0,25.74v9a16.8,16.8,0,0,0,5.57-1.21A15,15,0,0,0,15.23,20.58Z"/><path class="cls-3" d="M31.23,20.54h-9.6a20.22,20.22,0,0,1-6.4,13.91,22.76,22.76,0,0,1-9.62,5.4H23a31,31,0,0,0,2.38-2.76A28.52,28.52,0,0,0,31.23,20.54Z"/><path class="cls-1" d="M34.42,34.19a33.88,33.88,0,0,1-3.2-13.63v0a28.48,28.48,0,0,1-5.89,16.56q.62,1.4,1.35,2.76h4.38A34.71,34.71,0,0,0,34.42,34.19Z"/><path class="cls-2" d="M26.8,39.86h-.12q-.73-1.36-1.35-2.76a28.56,28.56,0,0,0,5.86-15.83q0,.81,0,1.62A33.79,33.79,0,0,1,26.8,39.86Z"/><path class="cls-3" d="M47.22,20.56h-9.6a33.88,33.88,0,0,1-3.2,13.63,34.71,34.71,0,0,1-3.36,5.69h11.1A42.23,42.23,0,0,0,47.22,20.56Z"/></g><g id="M-2" data-name="M"><path class="cls-1" d="M5.61,0V6.37a15,15,0,0,1,9.62,12.94V5.43A22.77,22.77,0,0,0,5.61,0Z"/><path class="cls-4" d="M15.13,18.59A15.11,15.11,0,0,0,5.61,6.5V2.69A21.94,21.94,0,0,1,15.13,18.59Z"/><path class="cls-5" d="M15.23,19.29v0H5.57A6.21,6.21,0,0,0,0,14.13v-9A16.8,16.8,0,0,1,5.57,6.35,15,15,0,0,1,15.23,19.29Z"/><path class="cls-5" d="M31.23,19.34h-9.6a20.22,20.22,0,0,0-6.4-13.91A22.77,22.77,0,0,0,5.61,0H23a29.61,29.61,0,0,1,2.38,2.76A28.49,28.49,0,0,1,31.23,19.34Z"/><path class="cls-1" d="M34.42,5.69a33.88,33.88,0,0,0-3.2,13.63v0A28.46,28.46,0,0,0,25.33,2.76Q25.95,1.35,26.68,0h4.38A34.3,34.3,0,0,1,34.42,5.69Z"/><path class="cls-4" d="M26.8,0h-.12q-.73,1.37-1.35,2.76A28.55,28.55,0,0,1,31.19,18.6c0-.53,0-1.07,0-1.61A33.79,33.79,0,0,0,26.8,0Z"/><path class="cls-5" d="M47.22,19.32h-9.6a33.88,33.88,0,0,0-3.2-13.63A34.3,34.3,0,0,0,31.06,0h11.1A42.23,42.23,0,0,1,47.22,19.32Z"/></g><path class="cls-3" d="M6.93,61.83,3.13,49.46H3c.13,2.52.2,4.2.2,5v7.33h-3V46.06H4.81L8.54,58.12H8.6l4-12.06h4.55V61.83H14V54.37c0-.35,0-.76,0-1.22s.06-1.68.15-3.67h-.1L10,61.83Z"/><path class="cls-3" d="M32,61.83l-1.14-3.75H25.06l-1.14,3.75h-3.6L25.88,46H30l5.59,15.83ZM30,55.27C29,51.87,28.36,50,28.23,49.5s-.23-.79-.29-1q-.36,1.38-2,6.82Z"/><path class="cls-3" d="M50,61.83H38.3V59.66l7.56-10.84H38.51V46.06H49.83v2.16L42.28,59.07H50Z"/><path class="cls-3" d="M70.13,61.83H66.32l-2.13-8.28c-.08-.3-.22-.91-.41-1.83s-.3-1.54-.33-1.86c0,.39-.15,1-.32,1.87s-.31,1.47-.4,1.84l-2.12,8.26h-3.8l-4-15.77h3.29l2,8.61c.36,1.59.61,3,.77,4.13,0-.41.14-1,.3-1.9s.3-1.53.43-2l2.3-8.84h3.16l2.3,8.84c.1.39.22,1,.37,1.81s.27,1.51.35,2.09c.07-.56.19-1.26.34-2.1s.31-1.51.44-2l2-8.61h3.29Z"/><path class="cls-3" d="M86.43,61.83H77.35V46.06h9.08V48.8H80.69v3.46H86V55H80.69v4.07h5.74Z"/><path class="cls-3" d="M90.94,46.06h4.9a9.4,9.4,0,0,1,4.87,1,3.32,3.32,0,0,1,1.52,3,3.76,3.76,0,0,1-.67,2.32,2.62,2.62,0,0,1-1.76,1.09v.11A3.45,3.45,0,0,1,102,54.82a4.54,4.54,0,0,1-.89,5.8,6.71,6.71,0,0,1-4.23,1.21h-5.9Zm3.34,6.25h1.94a3.56,3.56,0,0,0,2-.42,1.59,1.59,0,0,0,.61-1.39,1.37,1.37,0,0,0-.67-1.3A4.15,4.15,0,0,0,96,48.8H94.28Zm0,2.65v4.11h2.18a3.25,3.25,0,0,0,2-.53,2,2,0,0,0,.65-1.62c0-1.3-.93-2-2.8-2Z"/></g></g></svg>