<?xml version="1.0" encoding="utf-8"?>
<!-- Generator: Adobe Illustrator 24.0.0, SVG Export Plug-In . SVG Version: 6.00 Build 0)  -->
<svg version="1.1" id="Layer_1" xmlns="http://www.w3.org/2000/svg" xmlns:xlink="http://www.w3.org/1999/xlink" x="0px" y="0px"
	 viewBox="0 0 600 95" style="enable-background:new 0 0 600 95;" xml:space="preserve">
<style type="text/css">
	.st0{fill:#FFFFFF;}
	.st1{fill:#93C01F;}
</style>
<g>
	<g>
		<path class="st0" d="M44.9,80.8c0.7,0,1.4,0.2,2,0.7c0.6,0.5,1,1.3,1,2.3v5.1c0,0.9-0.4,1.8-1,2.3s-1.3,0.7-2,0.7H32.5v-11H44.9z
			 M34.6,90h10c0.3,0,0.6-0.1,0.8-0.3c0.2-0.1,0.3-0.3,0.3-0.8v-5.3c0-0.5-0.1-0.7-0.3-0.8c-0.2-0.1-0.5-0.2-0.8-0.2h-10V90z"/>
		<path class="st0" d="M73.4,80.8v1.8H61.6v2.8h11.1v1.8H61.6V90h11.8v1.8h-14v-11H73.4z"/>
		<path class="st0" d="M95.8,80.8c0.7,0,1.4,0.2,2,0.7c0.6,0.5,0.9,1.2,1,2.1h-2.2c0-0.4-0.1-0.6-0.3-0.7c-0.2-0.2-0.5-0.2-0.8-0.2
			h-7.7c-0.3,0-0.6,0.1-0.8,0.2c-0.2,0.1-0.3,0.3-0.3,0.8v0.6c0,0.5,0.1,0.7,0.3,0.8c0.2,0.2,0.5,0.2,0.8,0.2h8.3
			c0.7,0,1.4,0.2,2,0.7c0.6,0.5,1,1.3,1,2.3l0,0.6c0,0.9-0.4,1.8-1,2.3c-0.6,0.5-1.3,0.7-2,0.7h-8.6c-0.7,0-1.4-0.2-2-0.7
			c-0.6-0.5-1-1.3-1-2.3l0-0.3h2.2c0,0.2,0,0.4,0,0.4c0,0.5,0.1,0.7,0.3,0.8c0.2,0.1,0.5,0.2,0.8,0.2h8.1c0.3,0,0.6-0.1,0.8-0.2
			c0.2-0.2,0.3-0.3,0.3-0.8c0,0,0-0.6,0-1c0-0.3-0.2-0.5-0.3-0.6c-0.2-0.2-0.5-0.2-0.8-0.2h-8.3c-0.7,0-1.4-0.2-2-0.7
			c-0.6-0.5-1-1.3-1-2.2h0v-0.4c0-0.9,0.4-1.8,1-2.3c0.6-0.5,1.3-0.7,2-0.7H95.8z"/>
		<path class="st0" d="M112.6,80.8v11h-2.2v-11H112.6z"/>
		<path class="st0" d="M136.6,80.8c0.7,0,1.4,0.2,2,0.7c0.6,0.5,1,1.3,1,2.3l0,0.8h-2.2v-0.9c0-0.5-0.1-0.7-0.3-0.8
			c-0.2-0.2-0.5-0.2-0.8-0.2h-8.9c-0.3,0-0.6,0.1-0.8,0.2c-0.2,0.1-0.3,0.3-0.3,0.8V89c0,0.5,0.1,0.7,0.3,0.8
			c0.2,0.2,0.5,0.3,0.8,0.3h8.9c0.3,0,0.6-0.1,0.8-0.3c0.2-0.1,0.3-0.3,0.3-0.8c0,0,0-0.5,0-1.3h-5.6v-1.8h7.8l0,3
			c0,0.9-0.4,1.8-1,2.3c-0.6,0.5-1.3,0.7-2,0.7h-9.5c-0.7,0-1.4-0.2-2-0.7s-1-1.3-1-2.3v-5.1c0-0.9,0.4-1.8,1-2.3
			c0.6-0.5,1.3-0.7,2-0.7H136.6z"/>
		<path class="st0" d="M153.1,80.8l10.5,8.1v-8.1h2.2v11h-1.9l-10.5-8.1v8.1h-2.2v-11H153.1z"/>
		<path class="st0" d="M203,80.8l7.9,11h-2.7l-1.8-2.6h-8.6l-1.8,2.6h-2.7l7.9-11H203z M199,87.5h6l-3-4.2L199,87.5z"/>
		<path class="st0" d="M223.6,80.8l10.5,8.1v-8.1h2.2v11h-1.9l-10.5-8.1v8.1h-2.2v-11H223.6z"/>
		<path class="st0" d="M260.4,80.8c0.7,0,1.4,0.2,2,0.7c0.6,0.5,1,1.3,1,2.3v5.1c0,0.9-0.4,1.8-1,2.3s-1.3,0.7-2,0.7h-12.4v-11
			H260.4z M250.1,90h10c0.3,0,0.6-0.1,0.8-0.3c0.2-0.1,0.3-0.3,0.3-0.8v-5.3c0-0.5-0.1-0.7-0.3-0.8c-0.2-0.1-0.5-0.2-0.8-0.2h-10V90
			z"/>
		<path class="st0" d="M304.1,80.8c0.7,0,1.4,0.2,2,0.7c0.6,0.5,1,1.3,1,2.3v5.1c0,0.9-0.4,1.8-1,2.3c-0.6,0.5-1.3,0.7-2,0.7h-12.4
			v-11H304.1z M293.8,90h10c0.3,0,0.6-0.1,0.8-0.3c0.2-0.1,0.3-0.3,0.3-0.8v-5.3c0-0.5-0.1-0.7-0.3-0.8c-0.2-0.1-0.5-0.2-0.8-0.2
			h-10V90z"/>
		<path class="st0" d="M332.7,80.8v1.8h-11.8v2.8H332v1.8h-11.1V90h11.8v1.8h-14v-11H332.7z"/>
		<path class="st0" d="M350.9,91.8l-7.9-11h2.7l6.1,8.6l6.1-8.6h2.7l-7.9,11H350.9z"/>
		<path class="st0" d="M385.4,80.8v1.8h-11.8v2.8h11.1v1.8h-11.1V90h11.8v1.8h-14v-11H385.4z"/>
		<path class="st0" d="M398.9,80.8V90h10.8v1.8h-12.9v-11H398.9z"/>
		<path class="st0" d="M433.7,80.8c0.7,0,1.4,0.2,2,0.7c0.6,0.5,1,1.3,1,2.3v5.1c0,0.9-0.4,1.8-1,2.3s-1.3,0.7-2,0.7h-9.5
			c-0.7,0-1.4-0.2-2-0.7c-0.6-0.5-1-1.3-1-2.3v-5.1c0-0.9,0.4-1.8,1-2.3c0.6-0.5,1.3-0.7,2-0.7H433.7z M423.7,82.8
			c-0.2,0.1-0.3,0.3-0.3,0.8V89c0,0.5,0.1,0.7,0.3,0.8c0.2,0.2,0.5,0.3,0.8,0.3h8.9c0.3,0,0.6-0.1,0.8-0.3c0.2-0.1,0.3-0.3,0.3-0.8
			v-5.3c0-0.5-0.1-0.7-0.3-0.8c-0.2-0.1-0.5-0.2-0.8-0.2h-8.9C424.1,82.6,423.8,82.7,423.7,82.8z"/>
		<path class="st0" d="M459.5,80.8c0.7,0,1.4,0.2,2,0.7c0.6,0.5,1,1.3,1,2.3v1.3c0,0.9-0.4,1.8-1,2.3c-0.6,0.5-1.3,0.7-2,0.7h-9.1
			v3.7h-2.2v-11H459.5z M450.4,86.3h8.8c0.3,0,0.6-0.1,0.8-0.3c0.2-0.1,0.3-0.3,0.3-0.8v-1.6c0-0.5-0.1-0.7-0.3-0.8
			c-0.2-0.1-0.5-0.2-0.8-0.2h-8.8V86.3z"/>
		<path class="st0" d="M475.7,80.8l6.3,8.7l6.3-8.7h2v11h-2.2v-7.3l-5.2,7.3h-1.8l-5.2-7.3v7.3h-2.2v-11H475.7z"/>
		<path class="st0" d="M516,80.8v1.8h-11.8v2.8h11.1v1.8h-11.1V90H516v1.8h-14v-11H516z"/>
		<path class="st0" d="M529.3,80.8l10.5,8.1v-8.1h2.2v11H540l-10.5-8.1v8.1h-2.2v-11H529.3z"/>
		<path class="st0" d="M567.5,80.8v1.8h-6.3v9.2h-2.2v-9.2h-6.3v-1.8H567.5z"/>
	</g>
	<g>
		<path class="st1" d="M19.3,3.2l26.4,36.6L72.1,3.2h8.4v46.3h-9.1V18.9L49.6,49.5H42L20,18.9v30.6h-9.1V3.2H19.3z"/>
		<path class="st1" d="M152.6,3.2l33.1,46.3h-11.2l-7.7-10.7h-36.1l-7.7,10.7h-11.2L145,3.2H152.6z M136.1,31.3h25.3l-12.7-17.7
			L136.1,31.3z"/>
		<path class="st1" d="M271.4,3.2h3.2v7.2l-27.7,19.1l0-0.1l-0.1,0.1l-11.3,7.8l-6.6,4.6h45.8v7.5h-60v-7.2l27.8-19.2l18-12.4h-44.8
			V3.2L271.4,3.2z"/>
		<path class="st1" d="M403.6,3.2l-24.4,46.2l0,0.1h-10.1L353.6,16L338,49.5H328l0-0.1L303.6,3.2h10.3l19,36l16.8-36h7.9l16.8,36
			l19-36H403.6z"/>
		<path class="st1" d="M493.7,3.2v7.5H444v11.8h46.7V30H444V42h49.7v7.5H435V3.2H493.7z"/>
		<path class="st1" d="M574.7,3.2c2.9,0,6,0.8,8.5,2.9c2.5,2.1,4.1,5.6,4.1,9.6v2.1c0,2.9-0.9,5.5-2.3,7.6c2.4,2.1,4,5.6,4,9.5
			l0,2.2c0,4-1.6,7.5-4.1,9.6c-2.5,2.1-5.6,2.9-8.5,2.9h-49.1l0-46.3H574.7z M536.4,42h38.9c1.4,0,2.6-0.4,3.3-1
			c0.7-0.6,1.3-1.4,1.3-3.5l0-2.9c0-2.1-0.6-2.9-1.3-3.5c-0.7-0.6-2-1-3.3-1h-38.9L536.4,42z M536.4,22.5h37.1c1.4,0,2.6-0.4,3.3-1
			c0.7-0.6,1.3-1.4,1.3-3.5v-2.7c0-2.1-0.6-2.9-1.3-3.5c-0.7-0.6-2-1-3.3-1h-37.1V22.5z"/>
	</g>
</g>
</svg>
