<?xml version="1.0" encoding="utf-8"?>
<!-- Generator: Adobe Illustrator 24.0.0, SVG Export Plug-In . SVG Version: 6.00 Build 0)  -->
<svg version="1.1" xmlns="http://www.w3.org/2000/svg" xmlns:xlink="http://www.w3.org/1999/xlink" x="0px" y="0px"
	 viewBox="0 0 60 60" style="enable-background:new 0 0 60 60;" xml:space="preserve">
<style type="text/css">
	.st0{display:none;}
	.st1{display:inline;}
	.st2{fill:#86C232;}
</style>
<g id="Layer_1" class="st0">
	<g class="st1">
		<path class="st2" d="M23.7,35.2c0.7,0,1.4-0.6,1.4-1.4c0-0.7-0.5-1.3-1.2-1.3c-0.7,0-1.4,0.6-1.4,1.4C22.4,34.6,23,35.1,23.7,35.2
			z"/>
		<path class="st2" d="M46.7,49.2c0.2-0.9,0.5-1.6,0.6-2.4c0-0.2-0.1-0.4-0.2-0.6c-3.8-6.6-7.6-13.2-11.4-19.8
			c-0.5-0.9-1.1-1.9-1.6-2.8c-0.5,0.3-1.1,0.6-1.6,0.9c0.1,0.2,0.2,0.3,0.3,0.5c2.3,4.1,4.7,8.1,7,12.2c0.2,0.3,0.3,0.6,0.3,1
			c0,0.7-0.6,1.2-1.3,1.2c-1.7,0-3.4,0-5,0c-0.8,0-1.3-0.6-1.3-1.3c0-0.7,0.5-1.2,1.3-1.3c0.8,0,1.5,0,2.3,0c0.2,0,0.4,0,0.6,0
			c-2.2-3.8-4.4-7.5-6.6-11.4c-0.1,0.2-0.2,0.3-0.3,0.5c-0.9,1.6-1.9,3.3-2.8,4.9c-0.4,0.6-0.9,0.9-1.4,0.8c-0.9-0.2-1.3-1.1-0.8-2
			c0.8-1.5,1.7-3,2.6-4.5c0.1-0.2,0.2-0.4,0.4-0.6c-0.5-0.3-1.1-0.6-1.6-0.9c-0.1,0.1-0.2,0.3-0.2,0.4c-4.3,7.4-8.6,14.8-12.9,22.3
			c-0.1,0.2-0.2,0.5-0.1,0.8c0.1,0.7,0.4,1.4,0.6,2.2c0.2-0.3,0.3-0.4,0.4-0.6c2.1-3.6,4.2-7.2,6.2-10.8c0.4-0.7,0.9-1,1.7-1
			c2.2,0,4.3,0,6.5,0c0.2,0,0.4,0,0.6,0c0-0.6,0-1.2,0-1.8c0-0.9,0.8-1.4,1.6-1.2c0.6,0.1,0.9,0.6,1,1.2c0,2.1,0,4.2,0,6.3
			c0,0.7-0.6,1.3-1.2,1.3c-0.7,0-1.3-0.5-1.3-1.3c0-0.6,0-1.2,0-1.8c-0.2,0-0.3,0-0.5,0c-1.9,0-3.9,0-5.8,0c-0.3,0-0.5,0.1-0.7,0.4
			c-2.5,4.3-5,8.7-7.5,13c-0.1,0.1-0.1,0.2-0.2,0.3c-0.3,0.5-0.7,0.8-1.3,0.7c-0.6-0.1-0.9-0.5-1.1-1c-0.4-1.5-0.8-3-1.2-4.5
			C9.9,46,9.8,46.6,11,44.6C15.3,37,19.7,29.5,24,22c0.2-0.3,0.2-0.6,0.1-1c-1.2-2.7-0.3-5.9,2-7.6c0.3-0.2,0.4-0.5,0.4-0.9
			c0-1.6,0-3.2,0-4.7c0-1,0.5-1.5,1.5-1.5c1.3,0,2.7,0,4,0c0.9,0,1.4,0.5,1.4,1.4c0,0.8,0,1.6,0,2.4c0,0.8-0.5,1.3-1.2,1.3
			c-0.7,0-1.3-0.5-1.3-1.3c0-0.4,0-0.8,0-1.3c-0.7,0-1.3,0-1.9,0c0,1.1,0,2.2,0,3.2c0.7,0,1.3,0,2,0.1c4.2,0.6,6.6,5.1,4.9,9
			c-0.2,0.3-0.1,0.6,0.1,0.9c4.5,7.8,9.1,15.7,13.6,23.5c0.3,0.6,0.4,1.1,0.2,1.7c-0.5,1.8-1,3.6-1.5,5.4c-0.2,0.6-0.5,1-1.1,1.1
			c-0.6,0.1-1.1-0.2-1.4-0.8c-1.9-3.2-3.7-6.4-5.6-9.6c-0.4-0.7-0.2-1.5,0.4-1.8c0.6-0.4,1.3-0.1,1.8,0.6c0.1,0.1,0.1,0.2,0.1,0.3
			c1.2,2.1,2.4,4.2,3.6,6.3C46.4,48.8,46.5,48.9,46.7,49.2z M30,22.4c2.2,0,4-1.7,4-3.9c0-2.2-1.8-4-3.9-4c-2.2,0-3.9,1.8-3.9,3.9
			C26.1,20.6,27.8,22.4,30,22.4z"/>
		<path class="st2" d="M23.7,35.2c-0.7,0-1.2-0.6-1.2-1.3c0-0.8,0.7-1.4,1.4-1.4c0.7,0,1.2,0.6,1.2,1.3C25,34.5,24.4,35.2,23.7,35.2
			z"/>
		<path class="st2" d="M27.8,18.5c0-1.2,1-2.2,2.2-2.2c1.2,0,2.2,1,2.2,2.2c0,1.2-1,2.2-2.2,2.2C28.8,20.7,27.8,19.7,27.8,18.5z"/>
	</g>
</g>
<g id="Layer_2" class="st0">
	<g class="st1">
		<path class="st2" d="M6.8,37.2c0.2-0.4,0.5-0.7,1-0.8c1.3-0.5,2.5-1,3.8-1.4c0.9-0.4,1.3-0.2,1.8,0.7c0.1-0.1,0.3-0.1,0.4-0.2
			c1.9-0.8,3.7-1.6,5.6-2.2c2.8-0.9,5.6-0.7,8.1,0.9c0.4,0.3,0.9,0.6,1.2,0.9c1.3,1.4,3,2.1,4.8,2.2c1.2,0.1,2.4,0.2,3.6,0.2
			c0.7,0,1.4,0.2,2,0.7c0.2,0.2,0.4,0.2,0.6,0c2.6-1.4,5.3-2.7,7.9-4.1c2.4-1.4,4.9,0.1,5.3,2.3c0,0,0,0,0.1,0.1c0,0.4,0,0.8,0,1.2
			c-0.3,1.3-1.2,2.2-2.4,2.8c-0.1,0-0.2,0.1-0.3,0.2c-4.3,2.6-8.6,5.3-13,7.8c-3.6,2-7.4,2.3-11.1,0.2c-1.2-0.7-2.5-1.2-3.9-1.6
			c-1.6-0.4-3.1-0.2-4.7,0.5c0,0.1,0.1,0.2,0.1,0.3c0.3,0.8,0.1,1.3-0.7,1.6c-2.5,0.9-4.9,1.9-7.4,2.8c-0.8,0.3-1.5,0-1.6-0.9
			c-0.4-3.4-0.7-6.9-1.1-10.3c-0.1-1-0.2-1.9-0.4-2.9C6.8,37.7,6.8,37.5,6.8,37.2z M14.1,37.6c1,2.7,2,5.2,3,7.8
			c0.5-0.2,0.9-0.3,1.3-0.4c1.1-0.4,2.1-0.5,3.3-0.3c1.4,0.2,2.7,0.6,4,1.1c0.5,0.2,1,0.4,1.4,0.7c3,1.9,6.1,1.9,9,0.2
			c4.9-2.7,9.6-5.7,14.4-8.6c0.6-0.4,0.8-1.1,0.4-1.8c-0.4-0.6-1.1-0.9-1.8-0.5c-2.8,1.4-5.6,2.9-8.3,4.3c-0.1,0.1-0.2,0.2-0.2,0.4
			c0.1,1.9-1.2,3.5-3.2,3.5c-2,0-4,0-6-0.2c-1.8-0.2-3.5-0.6-5.2-0.9c-0.7-0.1-1-0.7-0.9-1.3c0.1-0.6,0.7-0.9,1.4-0.7
			c0.3,0.1,0.6,0.2,1,0.2c3.2,0.8,6.4,0.9,9.7,0.8c0.7,0,1.2-0.5,1.2-1.1c0-0.7-0.5-1.1-1.2-1.2c-1.4-0.1-2.9-0.2-4.3-0.3
			c-2-0.2-3.8-0.9-5.2-2.4C25.8,35,23.5,34.5,21,35C18.6,35.4,16.5,36.7,14.1,37.6z M10.2,49.7c1.9-0.7,3.7-1.4,5.5-2.1
			c-1.3-3.5-2.7-7-4-10.5c-0.8,0.3-1.5,0.6-2.2,0.8C9.1,38.1,9,38.3,9,38.7c0.3,2.7,0.6,5.4,0.9,8.1C10,47.8,10.1,48.7,10.2,49.7z"
			/>
		<path class="st2" d="M26.2,28.2c0-0.4,0.1-0.9,0.2-1.5c0-0.3-0.1-0.4-0.2-0.6c-0.6-0.7-1.2-0.8-2-0.5c-0.3,0.1-0.6,0.1-0.9,0.2
			c-0.6,0.1-1-0.1-1.2-0.6c-0.3-0.7-0.7-1.4-1-2.2c-0.2-0.5-0.1-1,0.3-1.3c0.5-0.4,1-0.8,1.4-1.2c0.1-0.1,0.1-0.3,0.2-0.4
			c0-0.1,0-0.2,0-0.2c0.2-0.8-0.3-1.2-0.9-1.6c-0.3-0.1-0.6-0.4-0.9-0.6c-0.5-0.3-0.6-0.8-0.4-1.3c0.3-0.8,0.5-1.5,0.8-2.3
			c0.2-0.5,0.5-0.7,1.1-0.7c0.6,0,1.2,0.1,1.8,0.2c0.3,0,0.4-0.1,0.6-0.2c0.7-0.6,0.8-1.2,0.5-2c-0.1-0.3-0.2-0.6-0.2-1
			c-0.1-0.5,0.1-0.9,0.5-1.1c0.8-0.4,1.6-0.8,2.4-1.1C28.6,8,29,8.1,29.4,8.5c0.4,0.4,0.8,0.9,1.1,1.4c0.2,0.2,0.4,0.4,0.6,0.3
			c0,0,0.1,0,0.1,0c0.8,0.2,1.3-0.3,1.6-1c0.1-0.3,0.3-0.6,0.5-0.8c0.3-0.5,0.7-0.6,1.3-0.4c0.8,0.3,1.6,0.5,2.3,0.8
			c0.5,0.2,0.7,0.6,0.7,1.2c-0.1,0.6-0.1,1.2-0.2,1.8c0,0.2,0.1,0.4,0.2,0.5c0.5,0.8,1.3,0.8,2.1,0.5c0.3-0.1,0.6-0.1,0.9-0.2
			c0.5-0.1,0.9,0.1,1.1,0.6c0.4,0.7,0.7,1.5,1.1,2.2c0.2,0.5,0.1,0.9-0.3,1.3c-0.5,0.4-0.9,0.7-1.4,1.1c-0.1,0.1-0.2,0.3-0.2,0.5
			c-0.1,0.9,0.2,1.4,1,1.8c0.3,0.1,0.6,0.4,0.9,0.6c0.4,0.3,0.6,0.7,0.4,1.2c-0.3,0.8-0.5,1.5-0.8,2.3c-0.2,0.6-0.6,0.8-1.2,0.8
			c-0.6-0.1-1.2-0.1-1.8-0.2c-0.1,0-0.3,0.1-0.4,0.2c-0.7,0.6-1,1.2-0.6,2.1c0.1,0.3,0.1,0.6,0.2,0.8c0.1,0.6-0.1,1-0.6,1.3
			c-0.7,0.4-1.4,0.7-2.2,1c-0.6,0.3-1,0.2-1.4-0.3c-0.4-0.5-0.7-0.9-1.1-1.4c-0.1-0.1-0.3-0.1-0.4-0.2c0,0,0,0,0,0
			c-0.9-0.1-1.5,0.2-1.8,1.1c-0.1,0.3-0.3,0.5-0.5,0.8c-0.3,0.5-0.7,0.6-1.3,0.4c-0.7-0.2-1.4-0.5-2.2-0.8
			C26.4,29.5,26.1,29.2,26.2,28.2z M36.4,27.6c-0.1-0.6-0.2-1.2-0.4-1.8c-0.1-0.5,0-0.9,0.4-1.2c0.5-0.5,0.9-1,1.4-1.5
			c0.3-0.3,0.6-0.5,1-0.5c0.5,0,1,0.1,1.5,0.2c0.2,0,0.5,0.1,0.5-0.3c0.1-0.3,0.3-0.5-0.1-0.7c-0.5-0.2-0.9-0.5-1.3-0.8
			c-0.4-0.3-0.5-0.6-0.5-1.1c0-0.6,0-1.3-0.1-1.9c-0.1-0.5,0-0.9,0.5-1.3c0.5-0.4,0.9-0.8,1.4-1.1c-0.1-0.3-0.3-0.5-0.4-0.8
			c-0.6,0.1-1.2,0.2-1.8,0.4c-0.5,0.1-0.9,0-1.2-0.4c-0.4-0.5-0.9-0.9-1.4-1.3c-0.4-0.3-0.6-0.7-0.6-1.2c0.1-0.6,0.1-1.2,0.2-1.8
			c-0.3-0.1-0.5-0.2-0.8-0.3c-0.3,0.5-0.7,1-1,1.5c-0.3,0.5-0.7,0.6-1.2,0.6c-0.6,0-1.3,0-1.9,0.1c-0.5,0.1-0.9,0-1.2-0.5
			c-0.4-0.5-0.8-0.9-1.2-1.4c-0.3,0.1-0.5,0.3-0.8,0.4c0.1,0.6,0.2,1.2,0.4,1.8c0.1,0.5,0,0.8-0.4,1.1c-0.3,0.3-0.7,0.6-0.9,0.9
			c-1,1.5-1.2,1.1-2.6,1c-1-0.1-0.8-0.2-1.1,0.7c0,0,0,0,0,0.1c0.5,0.3,1,0.6,1.5,1c0.4,0.3,0.6,0.6,0.6,1.1c0,0.7,0,1.3,0.1,2
			c0.1,0.5,0,0.8-0.4,1.1c-0.4,0.3-0.8,0.7-1.2,1c-0.3,0.2-0.2,0.4-0.1,0.6c0.1,0.2,0.1,0.5,0.5,0.4c0.5-0.1,1-0.2,1.5-0.3
			c0.5-0.1,0.9,0,1.3,0.4c0.4,0.5,0.9,0.9,1.4,1.3c0.4,0.3,0.6,0.7,0.5,1.3c-0.1,0.5-0.1,0.9-0.2,1.4c-0.1,0.4,0.2,0.4,0.5,0.5
			c0.2,0.1,0.4,0.1,0.5-0.2c0.3-0.5,0.6-0.9,0.9-1.3c0.3-0.4,0.6-0.5,1.1-0.5c0.6,0,1.3,0,1.9-0.1c0.5-0.1,0.9,0,1.3,0.5
			c0.4,0.5,0.8,0.9,1.1,1.4C35.9,27.8,36.1,27.7,36.4,27.6z"/>
		<path class="st2" d="M31.9,24.4c-2.9,0-5.2-2.3-5.2-5.2c0-2.9,2.3-5.2,5.2-5.2c2.9,0,5.2,2.3,5.2,5.2
			C37.2,22.1,34.8,24.4,31.9,24.4z M35.1,19.2c0-1.8-1.4-3.1-3.2-3.1c-1.7,0-3.1,1.4-3.1,3.1c0,1.7,1.4,3.2,3.1,3.2
			C33.7,22.3,35.1,21,35.1,19.2z"/>
	</g>
</g>
<g id="Layer_3">
	<g>
		<path class="st2" d="M49.6,22.6c-1.1,0.1-2.2,0.2-3.2,0.3c-1.9,0.2-3.8,0.4-5.7,0.6c-0.5,0.1-0.8,0-1.1-0.4
			c-2.2-2.5-5.1-4-8.4-4.6c-5.5-1-10.4,0.4-14.7,3.9c-3.6,3-5.8,7-6.6,11.6c-0.8,4.5-0.1,8.8,2,12.9c0.1,0.2,0.2,0.3,0.3,0.5
			c-0.1,0.1-0.2,0.2-0.3,0.3c-0.1,0.1-0.2,0.1-0.4,0.3c-4-6.2-5.2-12.9-3-19.9c2.8-9.1,10.8-15.1,19.6-16
			C37.8,11.2,45.8,16.5,49.6,22.6z"/>
		<path class="st2" d="M23.5,34.4c0-3.2,2.3-5.8,5.5-6.1c4.9-0.5,9.8-1,14.8-1.5c2.4-0.3,4.9-0.5,7.3-0.8c0.1,0,0.2,0,0.4,0
			c0.6,0,1.1,0.3,1.2,0.9c0.2,0.5,0,1-0.6,1.3c-1.3,0.8-2.7,1.6-4,2.4c-5,3-10,6.1-15,9.1c-2.8,1.7-6,1.2-8.1-1.2
			C24,37.4,23.5,35.9,23.5,34.4z"/>
	</g>
</g>
<g id="Layer_4" class="st0">
	<g class="st1">
		<path class="st2" d="M38,9.8c0.2,0.1,0.4,0.1,0.6,0.2c1,0.4,1.6,1.2,1.7,2.3c0.1,1,0,2.1,0,3.2c-0.6,0-1.2,0-1.9,0
			c0-0.2,0-0.5,0-0.7c0-0.6-0.2-0.8-0.8-0.8c-2,0-4.1,0-6.1,0c-5.3,0-10.5,0-15.8,0c-0.8,0-0.9,0.1-0.9,0.9c0,10.1,0,20.2,0,30.3
			c0,0.7,0.2,0.9,0.9,0.9c8.1,0,16.1,0,24.2,0c0.1,0,0.3,0,0.4,0c0,0.8,0.1,1.6-0.2,2.4c-0.3,0.8-1,1.4-1.8,1.6
			c-0.1,0-0.2,0.1-0.3,0.1c-7.6,0-15.2,0-22.9,0c0,0-0.1-0.1-0.1-0.1c-1.4-0.4-2.1-1.3-2.1-2.8c0-4,0-7.9,0-11.9
			c0-7.6,0-15.2,0-22.9c0-0.8,0.2-1.6,0.9-2.1c0.4-0.3,0.9-0.5,1.4-0.8C22.7,9.8,30.3,9.8,38,9.8z M26.5,47.2
			c-0.5,0-0.9,0.4-0.9,0.9c0,0.6,0.4,1,1,1c0.5,0,0.9-0.4,0.9-0.9C27.5,47.6,27.1,47.2,26.5,47.2z"/>
		<path class="st2" d="M29.9,30.8c0-3.4,0-6.9,0-10.3c0-1.9,1.2-3.1,3.1-3.1c3.7,0,7.5,0,11.2,0c1.8,0,3.1,1.2,3.1,3.1
			c0,6.9,0,13.8,0,20.6c0,1.8-1.2,3.1-3.1,3.1c-3.7,0-7.5,0-11.2,0c-1.8,0-3-1.2-3-3C29.9,37.7,29.9,34.2,29.9,30.8z M31.7,30.4
			c0,2.9,0,5.9,0,8.8c0,0.8,0.4,1.2,1.2,1.2c3.8,0,7.5,0,11.3,0c0.7,0,1.1-0.4,1.1-1.1c0-5.8,0-11.7,0-17.5c0-0.8-0.4-1.2-1.2-1.2
			c-3.7,0-7.5,0-11.2,0c-0.8,0-1.2,0.4-1.2,1.2C31.7,24.6,31.7,27.5,31.7,30.4z M38.5,41.7c-0.4,0-0.9,0-1.3,0
			c-0.5,0-0.7,0.3-0.7,0.6c0,0.4,0.3,0.6,0.7,0.6c0.9,0,1.8,0,2.7,0c0.4,0,0.7-0.3,0.7-0.6c0-0.4-0.3-0.6-0.7-0.6
			C39.4,41.7,39,41.7,38.5,41.7z M40.4,18.7c-1.3,0-2.5,0-3.8,0c0,0.2,0,0.4,0,0.6c1.3,0,2.5,0,3.8,0C40.4,19,40.4,18.9,40.4,18.7z"
			/>
	</g>
</g>
</svg>
