<?xml version="1.0" encoding="utf-8"?>
<!-- Generator: Adobe Illustrator 24.0.0, SVG Export Plug-In . SVG Version: 6.00 Build 0)  -->
<svg version="1.1" id="Layer_1" xmlns="http://www.w3.org/2000/svg" xmlns:xlink="http://www.w3.org/1999/xlink" x="0px" y="0px"
	 viewBox="0 0 50 50" style="enable-background:new 0 0 50 50;" xml:space="preserve">
<style type="text/css">
	.st0{fill:#989898;}
	.st1{fill:#687B2B;}
	.st2{fill:#8CC63F;}
	.st3{fill:#6F6F6E;}
	.st4{fill:#D9D9D9;}
</style>
<g>
	<g id="M_4_">
		<g id="XMLID_3_">
			<g>
			</g>
			<g>
			</g>
		</g>
		<path class="st0" d="M5.9,2.4v7.2c5.8,2.5,9.9,8.1,10.2,14.7V8.6C13.3,5.7,9.8,3.6,5.9,2.4z"/>
		<path class="st1" d="M16,23.5c-0.7-6.1-4.6-11.3-10.1-13.7V5.5C11.6,9.8,15.4,16.2,16,23.5z"/>
		<path class="st2" d="M16.1,24.3L16.1,24.3l-10.2,0c-0.4-3.1-2.8-5.5-5.9-5.9V8.2c2.1,0.1,4.1,0.6,5.9,1.4
			C11.7,12.1,15.8,17.7,16.1,24.3z"/>
		<path class="st2" d="M33.1,24.3H22.9c-0.2-6.1-2.8-11.7-6.8-15.8c-2.8-2.8-6.3-5-10.2-6.1v0h18.4c0.9,1,1.7,2,2.5,3.1
			C30.6,10.9,32.9,17.3,33.1,24.3z"/>
		<path class="st0" d="M36.4,8.9c-2.1,4.7-3.3,10-3.4,15.4v0c0,0,0,0,0,0c-0.2-7-2.5-13.4-6.2-18.8c0.4-1.1,0.9-2.1,1.4-3.1h4.6
			C34.3,4.4,35.5,6.6,36.4,8.9z"/>
		<path class="st1" d="M28.4,2.4h-0.1c-0.5,1-1,2.1-1.4,3.1c3.6,5.1,5.9,11.3,6.2,17.9c0-0.6,0-1.2,0-1.8
			C33.1,14.5,31.3,7.9,28.4,2.4z"/>
		<path class="st2" d="M50,24.3H39.8c-0.1-5.5-1.3-10.7-3.4-15.4c-1-2.3-2.2-4.4-3.6-6.5h11.7C48,9,49.9,16.4,50,24.3z"/>
	</g>
	<g id="M_3_">
		<g id="XMLID_2_">
			<g>
			</g>
			<g>
			</g>
		</g>
		<path class="st0" d="M16.1,41.4V25.7c-0.3,6.6-4.4,12.2-10.2,14.7v7.2C9.8,46.4,13.3,44.3,16.1,41.4z"/>
		<path class="st3" d="M16,26.5c-0.7,6.1-4.6,11.3-10.1,13.7v4.3C11.6,40.2,15.4,33.8,16,26.5z"/>
		<path class="st4" d="M16.1,25.7L16.1,25.7l-10.2,0c-0.4,3.1-2.8,5.5-5.9,5.9v10.2c2.1-0.1,4.1-0.6,5.9-1.4
			C11.7,37.9,15.8,32.3,16.1,25.7z"/>
		<path class="st4" d="M33.1,25.7H22.9c-0.2,6.1-2.8,11.7-6.8,15.8c-2.8,2.8-6.3,5-10.2,6.1v0h18.4c0.9-1,1.7-2,2.5-3.1
			C30.6,39.1,32.9,32.7,33.1,25.7z"/>
		<path class="st0" d="M36.4,41.1c-2.1-4.7-3.3-10-3.4-15.4v0c0,0,0,0,0,0c-0.2,7-2.5,13.4-6.2,18.8c0.4,1.1,0.9,2.1,1.4,3.1h4.6
			C34.3,45.6,35.5,43.4,36.4,41.1z"/>
		<path class="st3" d="M28.4,47.6h-0.1c-0.5-1-1-2.1-1.4-3.1c3.6-5.1,5.9-11.3,6.2-17.9c0,0.6,0,1.2,0,1.8
			C33.1,35.5,31.3,42.1,28.4,47.6z"/>
		<path class="st4" d="M50,25.7H39.8c-0.1,5.5-1.3,10.7-3.4,15.4c-1,2.3-2.2,4.4-3.6,6.5h11.7C48,41,49.9,33.6,50,25.7z"/>
	</g>
</g>
</svg>
