<?xml version="1.0" encoding="utf-8"?>
<!-- Generator: Adobe Illustrator 24.0.0, SVG Export Plug-In . SVG Version: 6.00 Build 0)  -->
<svg version="1.1" id="Layer_1" xmlns="http://www.w3.org/2000/svg" xmlns:xlink="http://www.w3.org/1999/xlink" x="0px" y="0px"
	 viewBox="0 0 500 250" style="enable-background:new 0 0 500 250;" xml:space="preserve">
<style type="text/css">
	.st0{fill:none;stroke:#4A494A;stroke-width:0.9688;stroke-miterlimit:10;}
</style>
<g>
	<rect x="6.5" y="10.5" class="st0" width="46.5" height="46.5"/>
	<rect x="69.4" y="10.5" class="st0" width="46.5" height="46.5"/>
	<rect x="132.3" y="10.5" class="st0" width="46.5" height="46.5"/>
	<rect x="195.2" y="10.5" class="st0" width="46.5" height="46.5"/>
	<rect x="258.2" y="10.5" class="st0" width="46.5" height="46.5"/>
	<rect x="6.5" y="71.4" class="st0" width="46.5" height="46.5"/>
	<rect x="69.4" y="71.4" class="st0" width="46.5" height="46.5"/>
	<rect x="132.3" y="71.4" class="st0" width="46.5" height="46.5"/>
	<rect x="195.2" y="71.4" class="st0" width="46.5" height="46.5"/>
	<rect x="258.2" y="71.4" class="st0" width="46.5" height="46.5"/>
	<rect x="321.1" y="71.4" class="st0" width="46.5" height="46.5"/>
	<rect x="69.4" y="132.4" class="st0" width="46.5" height="46.5"/>
	<rect x="132.3" y="132.4" class="st0" width="46.5" height="46.5"/>
	<rect x="195.2" y="132.4" class="st0" width="46.5" height="46.5"/>
	<rect x="258.2" y="132.4" class="st0" width="46.5" height="46.5"/>
	<rect x="321.1" y="132.4" class="st0" width="46.5" height="46.5"/>
	<rect x="384" y="132.4" class="st0" width="46.5" height="46.5"/>
	<rect x="446.9" y="132.4" class="st0" width="46.5" height="46.5"/>
	<rect x="69.4" y="193.3" class="st0" width="46.5" height="46.5"/>
	<rect x="132.3" y="193.3" class="st0" width="46.5" height="46.5"/>
	<rect x="195.2" y="193.3" class="st0" width="46.5" height="46.5"/>
	<rect x="258.2" y="193.3" class="st0" width="46.5" height="46.5"/>
	<rect x="321.1" y="193.3" class="st0" width="46.5" height="46.5"/>
	<rect x="384" y="193.3" class="st0" width="46.5" height="46.5"/>
	<rect x="446.9" y="193.3" class="st0" width="46.5" height="46.5"/>
</g>
</svg>
