<?xml version="1.0" encoding="utf-8"?>
<!-- Generator: Adobe Illustrator 24.0.0, SVG Export Plug-In . SVG Version: 6.00 Build 0)  -->
<svg version="1.1" id="Layer_1" xmlns="http://www.w3.org/2000/svg" xmlns:xlink="http://www.w3.org/1999/xlink" x="0px" y="0px"
	 viewBox="0 0 800 800" style="enable-background:new 0 0 800 800;" xml:space="preserve">
<style type="text/css">
	.st0{fill:none;stroke:#8CC63F;stroke-width:0.9775;stroke-linecap:round;stroke-miterlimit:10;}
</style>
<g>
	<line class="st0" x1="265.2" y1="29.8" x2="272.9" y2="51"/>
	<line class="st0" x1="146.7" y1="98.2" x2="161.2" y2="115.5"/>
	<line class="st0" x1="58.8" y1="203.1" x2="78.3" y2="214.3"/>
	<line class="st0" x1="12" y1="331.6" x2="34.2" y2="335.6"/>
	<line class="st0" x1="12" y1="468.5" x2="34.2" y2="464.6"/>
	<line class="st0" x1="58.8" y1="597.1" x2="78.4" y2="585.8"/>
	<line class="st0" x1="146.8" y1="701.9" x2="161.3" y2="684.6"/>
	<line class="st0" x1="265.3" y1="770.3" x2="273" y2="749"/>
	<line class="st0" x1="400.1" y1="794" x2="400.1" y2="771.4"/>
	<line class="st0" x1="534.8" y1="770.2" x2="527.1" y2="749"/>
	<line class="st0" x1="653.3" y1="701.8" x2="638.8" y2="684.5"/>
	<line class="st0" x1="741.2" y1="596.9" x2="721.7" y2="585.7"/>
	<line class="st0" x1="788" y1="468.4" x2="765.8" y2="464.4"/>
	<line class="st0" x1="788" y1="331.5" x2="765.8" y2="335.4"/>
	<line class="st0" x1="741.2" y1="202.9" x2="721.6" y2="214.2"/>
	<line class="st0" x1="653.2" y1="98.1" x2="638.7" y2="115.4"/>
	<line class="st0" x1="534.7" y1="29.7" x2="527" y2="51"/>
	<line class="st0" x1="399.9" y1="6" x2="399.9" y2="28.6"/>
</g>
</svg>
