<?xml version="1.0" encoding="utf-8"?>
<!-- Generator: Adobe Illustrator 24.0.0, SVG Export Plug-In . SVG Version: 6.00 Build 0)  -->
<svg version="1.1" xmlns="http://www.w3.org/2000/svg" xmlns:xlink="http://www.w3.org/1999/xlink" x="0px" y="0px"
	 viewBox="0 0 800 800" style="enable-background:new 0 0 800 800;" xml:space="preserve">
<style type="text/css">
	.st0{display:none;}
	.st1{display:inline;}
	.st2{display:inline;fill:none;stroke:#F2F2F2;stroke-miterlimit:10;}
	.st3{display:inline;fill:none;stroke:#E6E6E6;stroke-miterlimit:10;}
	.st4{display:inline;fill:none;stroke:#D9D9D9;stroke-width:2;stroke-miterlimit:10;}
	.st5{display:inline;fill:none;stroke:#8CC63F;stroke-width:2;stroke-miterlimit:10;}
	.st6{display:inline;fill:none;stroke:#D9D9D9;stroke-miterlimit:10;}
	.st7{fill:#494949;}
	.st8{fill:none;stroke:#494949;stroke-miterlimit:10;}
	.st9{display:inline;fill:#8CC63F;}
	.st10{display:inline;fill:none;stroke:#4D4D4D;stroke-linecap:round;stroke-miterlimit:10;}
	.st11{display:inline;fill:none;stroke:#333333;stroke-linecap:round;stroke-miterlimit:10;}
	.st12{display:inline;fill:none;stroke:#808080;stroke-linecap:round;stroke-miterlimit:10;}
	.st13{fill:#333333;}
	.st14{fill:none;stroke:#8CC63F;stroke-width:3;stroke-miterlimit:10;}
	.st15{display:none;fill:none;stroke:#494949;stroke-width:3;stroke-miterlimit:10;}
</style>
<g id="Layer_1" class="st0">
	<g class="st1">
		<rect width="800" height="800"/>
	</g>
</g>
<g id="Layer_2">
	<g id="Animation">
		<g id="Center" class="st0">
			<line class="st2" x1="387.3" y1="400" x2="412.7" y2="400"/>
			<line class="st3" x1="400" y1="412.7" x2="400" y2="387.3"/>
		</g>
		<g class="st0">
			<path class="st4" d="M331.9,13.9c-22.7,4-44.8,9.9-66,17.7C115.4,86.3,8,230.6,8,400"/>
			<path class="st4" d="M468.1,786.1c22.7-4,44.8-9.9,66-17.7C684.6,713.7,792,569.4,792,400"/>
			<polyline class="st5" points="792,400 400,400 8,400 			"/>
			<polyline class="st6" points="265.9,31.5 400,400 534.1,768.5 			"/>
		</g>
		<g id="XMLID_5_" class="st0">
			<g class="st1">
				<path class="st7" d="M286.9,89.3l6.7,18.3c-42.2,15.3-80.8,39.8-113.5,72.5c-45.8,45.8-75.6,103.4-86.4,165.9l-19.3-3.4
					C94.9,225.2,177.4,129.1,286.9,89.3z"/>
			</g>
			<g class="st1">
				<path class="st8" d="M286.9,89.3c-109.5,39.9-192,135.9-212.5,253.3"/>
				<path class="st8" d="M93.7,346c10.9-62.5,40.6-120.1,86.4-165.9c32.7-32.7,71.3-57.2,113.5-72.5"/>
				<line class="st8" x1="93.7" y1="346" x2="74.4" y2="342.6"/>
				<line class="st8" x1="293.6" y1="107.6" x2="286.9" y2="89.3"/>
			</g>
		</g>
		<g id="Gerrn_Dots" class="st0">
			<circle class="st9" cx="560.6" cy="121.8" r="2.2"/>
			<circle class="st9" cx="550.8" cy="116.4" r="2.2"/>
			<circle class="st9" cx="540.8" cy="111.3" r="2.2"/>
			<circle class="st9" cx="530.6" cy="106.6" r="2.2"/>
			<circle class="st9" cx="520.3" cy="102.2" r="2.2"/>
			<circle class="st9" cx="509.8" cy="98.2" r="2.2"/>
			<circle class="st9" cx="499.2" cy="94.6" r="2.2"/>
			<circle class="st9" cx="488.5" cy="91.3" r="2.2"/>
			<circle class="st9" cx="477.6" cy="88.4" r="2.2"/>
			<circle class="st9" cx="466.7" cy="85.9" r="2.2"/>
			<circle class="st9" cx="455.7" cy="83.8" r="2.2"/>
			<circle class="st9" cx="444.6" cy="82.1" r="2.2"/>
			<circle class="st9" cx="433.4" cy="80.7" r="2.2"/>
			<circle class="st9" cx="422.3" cy="79.7" r="2.2"/>
			<circle class="st9" cx="411.1" cy="79.2" r="2.2"/>
			<circle class="st9" cx="399.9" cy="79" r="2.2"/>
			<circle class="st9" cx="388.6" cy="79.2" r="2.2"/>
			<circle class="st9" cx="377.4" cy="79.8" r="2.2"/>
			<circle class="st9" cx="366.3" cy="80.8" r="2.2"/>
			<circle class="st9" cx="355.1" cy="82.2" r="2.2"/>
			<circle class="st9" cx="344.1" cy="84" r="2.2"/>
			<circle class="st9" cx="333" cy="86.1" r="2.2"/>
			<circle class="st9" cx="322.1" cy="88.7" r="2.2"/>
			<circle class="st9" cx="311.3" cy="91.6" r="2.2"/>
			<circle class="st9" cx="300.6" cy="94.9" r="2.2"/>
			<circle class="st9" cx="290" cy="98.5" r="2.2"/>
			<circle class="st9" cx="279.5" cy="102.6" r="2.2"/>
			<circle class="st9" cx="269.2" cy="107" r="2.2"/>
			<circle class="st9" cx="259" cy="111.7" r="2.2"/>
			<circle class="st9" cx="249" cy="116.8" r="2.2"/>
			<circle class="st9" cx="239.2" cy="122.3" r="2.2"/>
			<circle class="st9" cx="229.6" cy="128.1" r="2.2"/>
			<circle class="st9" cx="220.2" cy="134.2" r="2.2"/>
			<circle class="st9" cx="211" cy="140.6" r="2.2"/>
			<circle class="st9" cx="202.1" cy="147.4" r="2.2"/>
			<circle class="st9" cx="193.4" cy="154.5" r="2.2"/>
		</g>
		<g class="st0">
			<line class="st10" x1="178.6" y1="154.5" x2="191.6" y2="169.1"/>
			<line class="st10" x1="166.1" y1="166.4" x2="179.8" y2="180.4"/>
			<line class="st10" x1="154.2" y1="179" x2="168.6" y2="192.2"/>
			<line class="st10" x1="142.9" y1="192.1" x2="158.1" y2="204.6"/>
			<line class="st10" x1="132.4" y1="205.9" x2="148.2" y2="217.5"/>
			<line class="st10" x1="122.6" y1="220.2" x2="139" y2="230.9"/>
			<line class="st10" x1="113.6" y1="234.9" x2="130.5" y2="244.8"/>
			<line class="st10" x1="105.3" y1="250.1" x2="122.7" y2="259.1"/>
			<line class="st10" x1="97.9" y1="265.8" x2="115.7" y2="273.8"/>
			<line class="st10" x1="91.3" y1="281.8" x2="109.5" y2="288.9"/>
			<line class="st10" x1="85.5" y1="298.1" x2="104.1" y2="304.3"/>
			<line class="st10" x1="80.6" y1="314.7" x2="99.5" y2="319.9"/>
			<line class="st10" x1="76.6" y1="331.5" x2="95.7" y2="335.7"/>
			<line class="st10" x1="73.4" y1="348.5" x2="92.8" y2="351.7"/>
			<line class="st10" x1="71.2" y1="365.7" x2="90.7" y2="367.9"/>
			<line class="st10" x1="69.8" y1="382.9" x2="89.4" y2="384.1"/>
			<line class="st10" x1="69.4" y1="400.2" x2="89" y2="400.4"/>
			<line class="st10" x1="69.9" y1="417.5" x2="89.4" y2="416.7"/>
			<line class="st10" x1="71.2" y1="434.8" x2="90.7" y2="432.9"/>
			<line class="st10" x1="73.5" y1="452" x2="92.9" y2="449"/>
			<line class="st10" x1="76.7" y1="469" x2="95.9" y2="465"/>
			<line class="st10" x1="80.7" y1="485.8" x2="99.7" y2="480.9"/>
			<line class="st10" x1="85.7" y1="502.4" x2="104.3" y2="496.5"/>
			<line class="st10" x1="91.5" y1="518.7" x2="109.8" y2="511.8"/>
			<line class="st10" x1="98.1" y1="534.7" x2="116" y2="526.8"/>
			<line class="st10" x1="105.6" y1="550.3" x2="123.1" y2="541.5"/>
			<line class="st10" x1="113.8" y1="565.5" x2="130.9" y2="555.8"/>
			<line class="st10" x1="122.9" y1="580.3" x2="139.4" y2="569.7"/>
			<line class="st10" x1="132.7" y1="594.5" x2="148.6" y2="583.1"/>
			<line class="st10" x1="143.2" y1="608.2" x2="158.5" y2="596"/>
			<line class="st10" x1="154.5" y1="621.4" x2="169.1" y2="608.4"/>
			<line class="st10" x1="166.4" y1="633.9" x2="180.4" y2="620.2"/>
			<line class="st10" x1="179" y1="645.8" x2="192.2" y2="631.4"/>
			<line class="st10" x1="192.1" y1="657.1" x2="204.6" y2="641.9"/>
			<line class="st10" x1="205.9" y1="667.6" x2="217.5" y2="651.8"/>
			<line class="st10" x1="220.2" y1="677.4" x2="230.9" y2="661"/>
			<line class="st10" x1="234.9" y1="686.4" x2="244.8" y2="669.5"/>
			<line class="st10" x1="250.1" y1="694.7" x2="259.1" y2="677.3"/>
			<line class="st10" x1="265.8" y1="702.1" x2="273.8" y2="684.3"/>
			<line class="st10" x1="281.8" y1="708.7" x2="288.9" y2="690.5"/>
			<line class="st10" x1="298.1" y1="714.5" x2="304.3" y2="695.9"/>
			<line class="st10" x1="314.7" y1="719.4" x2="319.9" y2="700.5"/>
			<line class="st10" x1="331.5" y1="723.4" x2="335.7" y2="704.3"/>
			<line class="st10" x1="348.5" y1="726.6" x2="351.7" y2="707.2"/>
			<line class="st10" x1="365.7" y1="728.8" x2="367.9" y2="709.3"/>
			<line class="st10" x1="382.9" y1="730.2" x2="384.1" y2="710.6"/>
			<line class="st10" x1="400.2" y1="730.6" x2="400.4" y2="711"/>
			<line class="st10" x1="417.5" y1="730.1" x2="416.7" y2="710.6"/>
			<line class="st10" x1="434.8" y1="728.8" x2="432.9" y2="709.3"/>
			<line class="st10" x1="452" y1="726.5" x2="449" y2="707.1"/>
			<line class="st10" x1="469" y1="723.3" x2="465" y2="704.1"/>
			<line class="st10" x1="485.8" y1="719.3" x2="480.9" y2="700.3"/>
			<line class="st10" x1="502.4" y1="714.3" x2="496.5" y2="695.7"/>
			<line class="st10" x1="518.7" y1="708.5" x2="511.8" y2="690.2"/>
			<line class="st10" x1="534.7" y1="701.9" x2="526.8" y2="684"/>
			<line class="st10" x1="550.3" y1="694.4" x2="541.5" y2="676.9"/>
			<line class="st10" x1="565.5" y1="686.2" x2="555.8" y2="669.1"/>
			<line class="st10" x1="580.3" y1="677.1" x2="569.7" y2="660.6"/>
			<line class="st10" x1="594.5" y1="667.3" x2="583.1" y2="651.4"/>
			<line class="st10" x1="608.2" y1="656.8" x2="596" y2="641.5"/>
			<line class="st10" x1="621.4" y1="645.5" x2="608.4" y2="630.9"/>
			<line class="st10" x1="633.9" y1="633.6" x2="620.2" y2="619.6"/>
			<line class="st10" x1="645.8" y1="621" x2="631.4" y2="607.8"/>
			<line class="st10" x1="657.1" y1="607.9" x2="641.9" y2="595.4"/>
			<line class="st10" x1="667.6" y1="594.1" x2="651.8" y2="582.5"/>
			<line class="st10" x1="677.4" y1="579.8" x2="661" y2="569.1"/>
			<line class="st10" x1="686.4" y1="565.1" x2="669.5" y2="555.2"/>
			<line class="st10" x1="694.7" y1="549.9" x2="677.3" y2="540.9"/>
			<line class="st10" x1="702.1" y1="534.2" x2="684.3" y2="526.2"/>
			<line class="st10" x1="708.7" y1="518.2" x2="690.5" y2="511.1"/>
			<line class="st10" x1="714.5" y1="501.9" x2="695.9" y2="495.7"/>
			<line class="st10" x1="719.4" y1="485.3" x2="700.5" y2="480.1"/>
			<line class="st10" x1="723.4" y1="468.5" x2="704.3" y2="464.3"/>
			<line class="st10" x1="726.6" y1="451.5" x2="707.2" y2="448.3"/>
			<line class="st10" x1="728.8" y1="434.3" x2="709.3" y2="432.1"/>
			<line class="st10" x1="730.2" y1="417.1" x2="710.6" y2="415.9"/>
			<line class="st10" x1="730.6" y1="399.8" x2="711" y2="399.6"/>
			<line class="st10" x1="730.1" y1="382.5" x2="710.6" y2="383.3"/>
			<line class="st10" x1="728.8" y1="365.2" x2="709.3" y2="367.1"/>
			<line class="st10" x1="726.5" y1="348" x2="707.1" y2="351"/>
			<line class="st10" x1="723.3" y1="331" x2="704.1" y2="335"/>
			<line class="st10" x1="719.3" y1="314.2" x2="700.3" y2="319.1"/>
			<line class="st10" x1="714.3" y1="297.6" x2="695.7" y2="303.5"/>
			<line class="st10" x1="708.5" y1="281.3" x2="690.2" y2="288.2"/>
			<line class="st10" x1="701.9" y1="265.3" x2="684" y2="273.2"/>
			<line class="st10" x1="694.4" y1="249.7" x2="676.9" y2="258.5"/>
			<line class="st10" x1="686.2" y1="234.5" x2="669.1" y2="244.2"/>
			<line class="st10" x1="677.1" y1="219.7" x2="660.6" y2="230.3"/>
			<line class="st10" x1="667.3" y1="205.5" x2="651.4" y2="216.9"/>
			<line class="st10" x1="656.8" y1="191.8" x2="641.5" y2="204"/>
			<line class="st10" x1="645.5" y1="178.6" x2="630.9" y2="191.6"/>
			<line class="st10" x1="633.6" y1="166.1" x2="619.6" y2="179.8"/>
			<line class="st10" x1="621" y1="154.2" x2="607.8" y2="168.6"/>
			<line class="st10" x1="607.9" y1="142.9" x2="595.4" y2="158.1"/>
			<line class="st10" x1="594.1" y1="132.4" x2="582.5" y2="148.2"/>
			<line class="st10" x1="579.8" y1="122.6" x2="569.1" y2="139"/>
		</g>
		<g class="st0">
			<line class="st11" x1="277.7" y1="64.1" x2="284.7" y2="83.4"/>
			<line class="st11" x1="170.2" y1="126.2" x2="183.3" y2="141.9"/>
			<line class="st11" x1="90.4" y1="221.3" x2="108.1" y2="231.6"/>
			<line class="st11" x1="48" y1="338" x2="68.1" y2="341.5"/>
			<line class="st11" x1="48" y1="462.1" x2="68.1" y2="458.6"/>
			<line class="st11" x1="90.5" y1="578.8" x2="108.2" y2="568.5"/>
			<line class="st11" x1="170.3" y1="673.9" x2="183.4" y2="658.2"/>
			<line class="st11" x1="277.8" y1="735.9" x2="284.8" y2="716.7"/>
			<line class="st11" x1="400.1" y1="757.5" x2="400.1" y2="737"/>
			<line class="st11" x1="522.3" y1="735.9" x2="515.3" y2="716.6"/>
			<line class="st11" x1="629.8" y1="673.8" x2="616.7" y2="658.1"/>
			<line class="st11" x1="709.6" y1="578.7" x2="691.9" y2="568.4"/>
			<line class="st11" x1="752" y1="462" x2="731.9" y2="458.5"/>
			<line class="st11" x1="752" y1="337.9" x2="731.9" y2="341.4"/>
			<line class="st11" x1="709.5" y1="221.2" x2="691.8" y2="231.5"/>
			<line class="st11" x1="629.7" y1="126.1" x2="616.6" y2="141.8"/>
			<line class="st11" x1="522.2" y1="64.1" x2="515.2" y2="83.3"/>
			<line class="st11" x1="399.9" y1="42.5" x2="399.9" y2="63"/>
		</g>
		<g class="st0">
			<line class="st12" x1="400" y1="142.7" x2="400" y2="130.8"/>
			<g class="st1">
				<path class="st7" d="M393.6,123.4c0.2,0.1,0.7,0.4,1.3,0.4c1,0,1.3-0.7,1.3-1.1c0-0.8-0.8-1.2-1.5-1.2h-0.4v-0.6h0.4
					c0.6,0,1.3-0.3,1.3-1c0-0.5-0.3-0.9-1-0.9c-0.5,0-0.9,0.2-1.2,0.4l-0.2-0.6c0.3-0.2,0.9-0.5,1.5-0.5c1.2,0,1.7,0.7,1.7,1.4
					c0,0.6-0.4,1.1-1.1,1.4v0c0.7,0.1,1.3,0.7,1.3,1.5c0,0.9-0.7,1.8-2.1,1.8c-0.7,0-1.2-0.2-1.5-0.4L393.6,123.4z"/>
				<path class="st7" d="M401.4,119c-0.2,0-0.4,0-0.6,0c-1.2,0.2-1.9,1.1-2,2.1h0c0.3-0.4,0.8-0.7,1.4-0.7c1,0,1.8,0.8,1.8,1.9
					c0,1.1-0.7,2.1-2,2.1c-1.3,0-2.1-1-2.1-2.5c0-1.2,0.4-2.1,1-2.6c0.5-0.5,1.1-0.8,1.9-0.9c0.2,0,0.4,0,0.6,0V119z M401.2,122.4
					c0-0.8-0.5-1.3-1.2-1.3c-0.5,0-0.9,0.3-1.1,0.7c-0.1,0.1-0.1,0.2-0.1,0.4c0,1,0.5,1.7,1.3,1.7
					C400.8,123.8,401.2,123.2,401.2,122.4z"/>
				<path class="st7" d="M406.6,121.3c0,2-0.7,3.1-2,3.1c-1.1,0-1.9-1.1-1.9-3c0-2,0.8-3.1,2-3.1
					C405.9,118.3,406.6,119.4,406.6,121.3z M403.4,121.4c0,1.5,0.5,2.4,1.2,2.4c0.8,0,1.2-0.9,1.2-2.4c0-1.4-0.4-2.4-1.2-2.4
					C403.9,118.9,403.4,119.8,403.4,121.4z"/>
			</g>
			<line class="st12" x1="312" y1="158.2" x2="307.9" y2="147"/>
			<g class="st1">
				<path class="st7" d="M299.4,142.2c0.3,0.1,0.8,0.1,1.3-0.1c1-0.3,1-1.1,0.9-1.5c-0.3-0.8-1.1-0.8-1.8-0.6l-0.4,0.2l-0.2-0.6
					l0.4-0.2c0.5-0.2,1.1-0.7,0.9-1.4c-0.2-0.4-0.6-0.7-1.3-0.5c-0.4,0.2-0.8,0.5-1,0.8l-0.4-0.5c0.2-0.3,0.7-0.7,1.3-0.9
					c1.1-0.4,1.8,0.1,2.1,0.7c0.2,0.6,0,1.2-0.5,1.7l0,0c0.7-0.1,1.5,0.2,1.7,1c0.3,0.9-0.1,1.9-1.4,2.4c-0.6,0.2-1.2,0.2-1.6,0.1
					L299.4,142.2z"/>
				<path class="st7" d="M306.2,140.7l-0.5-1.5l-2.6,0.9l-0.2-0.5l1.2-4.4l0.8-0.3l1.2,3.4l0.8-0.3l0.2,0.6l-0.8,0.3l0.5,1.5
					L306.2,140.7z M305.5,138.6l-0.7-1.8c-0.1-0.3-0.2-0.6-0.3-0.9l0,0c-0.1,0.4-0.1,0.7-0.2,1l-0.7,2.4l0,0L305.5,138.6z"/>
				<path class="st7" d="M310.9,135.8c0.7,1.9,0.4,3.2-0.9,3.6c-1.1,0.4-2.2-0.4-2.9-2.2c-0.7-1.9-0.2-3.2,0.9-3.6
					C309.2,133.3,310.3,134.1,310.9,135.8z M307.9,137c0.5,1.4,1.3,2.1,1.9,1.8c0.8-0.3,0.8-1.3,0.3-2.7c-0.5-1.4-1.2-2.1-1.9-1.8
					C307.6,134.5,307.4,135.5,307.9,137z"/>
			</g>
			<line class="st12" x1="234.6" y1="202.9" x2="226.9" y2="193.8"/>
			<g class="st1">
				<path class="st7" d="M217.3,192.2c0.3,0,0.8-0.2,1.2-0.6c0.8-0.7,0.6-1.4,0.3-1.7c-0.5-0.6-1.3-0.4-1.9,0.1l-0.3,0.3l-0.4-0.5
					l0.3-0.3c0.4-0.4,0.8-1.1,0.4-1.6c-0.3-0.4-0.8-0.5-1.4,0c-0.4,0.3-0.6,0.8-0.7,1.1l-0.5-0.3c0.1-0.4,0.4-0.9,0.9-1.3
					c0.9-0.7,1.7-0.6,2.2,0c0.4,0.5,0.4,1.1,0.1,1.8l0,0c0.6-0.4,1.4-0.3,2,0.3c0.6,0.7,0.6,1.8-0.5,2.7c-0.5,0.4-1.1,0.6-1.4,0.7
					L217.3,192.2z"/>
				<path class="st7" d="M221.3,190l-0.3-0.4l0.1-0.9c0.2-2.1,0.3-3.1-0.3-3.8c-0.4-0.5-1-0.7-1.6-0.1c-0.4,0.3-0.6,0.8-0.6,1.2
					l-0.6-0.3c0.1-0.5,0.4-1.1,0.9-1.5c1-0.8,1.9-0.5,2.5,0.2c0.7,0.8,0.7,2,0.5,3.7l-0.1,0.6l0,0l2-1.7l0.4,0.5L221.3,190z"/>
				<path class="st7" d="M225.9,182.2c1.3,1.5,1.4,2.9,0.4,3.7c-0.9,0.7-2.2,0.4-3.4-1.1c-1.3-1.5-1.3-2.9-0.4-3.7
					C223.5,180.4,224.7,180.8,225.9,182.2z M223.5,184.3c1,1.2,1.9,1.5,2.5,1.1c0.6-0.5,0.3-1.5-0.7-2.6c-0.9-1.1-1.8-1.6-2.5-1.1
					C222.3,182.1,222.5,183.1,223.5,184.3z"/>
			</g>
			<line class="st12" x1="177.2" y1="271.4" x2="166.9" y2="265.4"/>
			<g class="st1">
				<path class="st7" d="M157.3,267.2c0.2-0.1,0.7-0.5,1-0.9c0.5-0.9,0.1-1.5-0.3-1.7c-0.7-0.4-1.4,0.1-1.8,0.7l-0.2,0.4l-0.5-0.3
					l0.2-0.4c0.3-0.5,0.4-1.3-0.2-1.6c-0.4-0.2-0.9-0.2-1.3,0.4c-0.2,0.4-0.3,0.9-0.3,1.2l-0.6-0.1c0-0.4,0.1-1,0.4-1.6
					c0.6-1,1.4-1.1,2.1-0.8c0.5,0.3,0.8,0.9,0.7,1.6l0,0c0.5-0.6,1.3-0.8,2-0.4c0.8,0.5,1.2,1.5,0.5,2.7c-0.3,0.6-0.8,1-1.1,1.1
					L157.3,267.2z"/>
				<path class="st7" d="M159.6,258.9c1.7,1,2.3,2.2,1.7,3.3c-0.6,1-1.9,1.1-3.6,0.2c-1.7-1-2.2-2.3-1.6-3.3
					C156.7,258,158,258,159.6,258.9z M158.1,261.7c1.3,0.8,2.3,0.8,2.7,0.2c0.4-0.7-0.2-1.5-1.5-2.3c-1.3-0.7-2.3-0.9-2.7-0.2
					C156.2,260.1,156.7,260.9,158.1,261.7z"/>
				<path class="st7" d="M161.9,254.9c1.7,1,2.3,2.2,1.7,3.3c-0.6,1-1.9,1.1-3.6,0.2c-1.7-1-2.2-2.3-1.6-3.3
					C159,254,160.3,254,161.9,254.9z M160.4,257.7c1.3,0.8,2.3,0.8,2.7,0.2c0.4-0.7-0.2-1.5-1.5-2.3c-1.3-0.7-2.3-0.9-2.7-0.2
					C158.5,256,159,256.9,160.4,257.7z"/>
			</g>
			<line class="st12" x1="146.6" y1="355.3" x2="134.9" y2="353.3"/>
			<g class="st1">
				<path class="st7" d="M127.3,358.6l-0.5-0.1l-0.5-0.7c-1.1-1.7-1.8-2.5-2.6-2.7c-0.6-0.1-1.2,0.1-1.3,0.9c-0.1,0.5,0.1,1,0.3,1.3
					l-0.6,0.2c-0.3-0.5-0.4-1.1-0.3-1.7c0.2-1.2,1.2-1.6,2-1.5c1.1,0.2,1.8,1.1,2.8,2.5l0.3,0.5l0,0l0.5-2.6l0.6,0.1L127.3,358.6z"
					/>
				<path class="st7" d="M126.7,353.8c-0.7-0.1-1.2-0.7-1.3-1.4l0,0c-0.4,0.6-1,0.8-1.5,0.7c-0.9-0.2-1.4-1-1.2-2.1
					c0.2-1.1,1-1.6,1.7-1.4c0.5,0.1,1,0.4,1.2,1.2l0,0c0.4-0.7,1-1,1.7-0.9c1,0.2,1.5,1.2,1.3,2.3
					C128.4,353.4,127.5,354,126.7,353.8z M123.9,352.3c0.6,0.1,1-0.3,1.3-0.9c-0.1-0.5-0.4-1-0.9-1.1c-0.5-0.1-1,0.1-1.1,0.8
					C123,351.8,123.4,352.2,123.9,352.3z M127.2,350.7c-0.7-0.1-1.1,0.3-1.5,1c0.1,0.7,0.5,1.2,1,1.3c0.6,0.1,1.2-0.2,1.3-1
					C128.1,351.3,127.8,350.8,127.2,350.7z"/>
				<path class="st7" d="M126.7,345.1c2,0.3,2.9,1.3,2.7,2.6c-0.2,1.1-1.4,1.7-3.3,1.4c-1.9-0.3-2.9-1.4-2.7-2.5
					C123.6,345.2,124.8,344.7,126.7,345.1z M126.2,348.2c1.5,0.3,2.4,0,2.6-0.8c0.1-0.8-0.7-1.3-2.2-1.6c-1.4-0.3-2.4-0.1-2.6,0.8
					C123.9,347.3,124.6,348,126.2,348.2z"/>
			</g>
			<line class="st12" x1="146.6" y1="444.7" x2="134.9" y2="446.7"/>
			<g class="st1">
				<path class="st7" d="M129.6,454.3l-0.5,0.1l-0.7-0.5c-1.7-1.2-2.5-1.8-3.4-1.6c-0.6,0.1-1.1,0.5-0.9,1.3
					c0.1,0.5,0.4,0.9,0.7,1.1l-0.5,0.3c-0.4-0.3-0.8-0.9-0.9-1.5c-0.2-1.2,0.5-1.9,1.4-2.1c1.1-0.2,2.1,0.4,3.5,1.4l0.5,0.4l0,0
					l-0.5-2.6l0.6-0.1L129.6,454.3z"/>
				<path class="st7" d="M123,447.4c0,0.2,0.1,0.4,0.1,0.6c0.4,1.2,1.4,1.7,2.4,1.6l0,0c-0.4-0.2-0.8-0.6-0.9-1.3
					c-0.2-1,0.4-1.9,1.6-2.1c1.1-0.2,2.2,0.4,2.4,1.6c0.2,1.2-0.6,2.2-2.1,2.5c-1.1,0.2-2.1,0-2.8-0.5c-0.6-0.4-1-1-1.2-1.7
					c-0.1-0.2-0.1-0.4-0.1-0.6L123,447.4z M126.4,447c-0.8,0.1-1.2,0.7-1.1,1.4c0.1,0.5,0.5,0.9,0.9,1c0.1,0,0.2,0.1,0.4,0
					c0.9-0.2,1.6-0.7,1.4-1.6C127.8,447.2,127.2,446.9,126.4,447z"/>
				<path class="st7" d="M124.4,441.9c2-0.3,3.2,0.2,3.4,1.5c0.2,1.1-0.7,2.1-2.6,2.4c-1.9,0.3-3.2-0.3-3.4-1.5
					C121.6,443.1,122.5,442.2,124.4,441.9z M125,445c1.5-0.3,2.3-0.9,2.2-1.6c-0.1-0.8-1.1-1-2.6-0.8c-1.4,0.3-2.3,0.8-2.2,1.6
					C122.5,444.9,123.4,445.3,125,445z"/>
			</g>
			<line class="st12" x1="177.2" y1="528.6" x2="166.9" y2="534.6"/>
			<g class="st1">
				<path class="st7" d="M164.5,543.5l-0.4,0.2l-0.8-0.2c-2-0.6-3-0.8-3.8-0.4c-0.5,0.3-0.8,0.8-0.4,1.6c0.3,0.5,0.7,0.7,1.1,0.8
					l-0.4,0.5c-0.5-0.2-1-0.6-1.3-1.1c-0.6-1.1-0.1-2,0.6-2.4c0.9-0.5,2.1-0.3,3.7,0.2l0.6,0.2l0,0l-1.3-2.3l0.6-0.3L164.5,543.5z"
					/>
				<path class="st7" d="M160.9,537.4l-1.4,0.8l1.4,2.4l-0.5,0.3l-4.6-0.4l-0.4-0.7l3.2-1.8l-0.4-0.7l0.5-0.3l0.4,0.7l1.4-0.8
					L160.9,537.4z M159,538.5l-1.7,1c-0.3,0.2-0.5,0.3-0.8,0.4l0,0c0.4,0,0.7,0,1,0l2.4,0.2l0,0L159,538.5z"/>
				<path class="st7" d="M155.3,533.6c1.7-1,3.1-0.9,3.7,0.2c0.6,1,0,2.2-1.6,3.2c-1.7,1-3.1,0.8-3.7-0.2
					C153.1,535.7,153.7,534.6,155.3,533.6z M157,536.3c1.3-0.8,1.8-1.6,1.5-2.2c-0.4-0.7-1.4-0.6-2.7,0.2c-1.3,0.7-1.9,1.5-1.5,2.2
					C154.6,537.1,155.6,537.1,157,536.3z"/>
			</g>
			<line class="st12" x1="234.6" y1="597.1" x2="226.9" y2="606.2"/>
			<g class="st1">
				<path class="st7" d="M227.8,615.4l-0.3,0.4l-0.9,0.1c-2.1,0.1-3.1,0.3-3.7,0.9c-0.4,0.5-0.5,1.1,0.2,1.6
					c0.4,0.3,0.9,0.4,1.3,0.4l-0.2,0.6c-0.5,0-1.1-0.2-1.7-0.6c-1-0.8-0.8-1.8-0.3-2.5c0.7-0.8,1.9-1,3.6-1.1l0.6,0l0,0l-2-1.7
					l0.4-0.5L227.8,615.4z"/>
				<path class="st7" d="M224.2,612.4l-0.3,0.4l-0.9,0.1c-2.1,0.1-3.1,0.3-3.7,0.9c-0.4,0.5-0.5,1.1,0.2,1.6
					c0.4,0.3,0.9,0.4,1.3,0.4l-0.2,0.6c-0.5,0-1.1-0.2-1.7-0.6c-1-0.8-0.8-1.8-0.3-2.5c0.7-0.8,1.9-1,3.6-1.1l0.6,0l0,0l-2-1.7
					l0.4-0.5L224.2,612.4z"/>
				<path class="st7" d="M215.8,609.3c1.3-1.5,2.6-1.9,3.6-1.1c0.9,0.7,0.8,2.1-0.5,3.6c-1.3,1.5-2.6,1.8-3.5,1
					C214.4,612,214.6,610.7,215.8,609.3z M218.3,611.2c1-1.2,1.2-2.1,0.6-2.6c-0.6-0.5-1.5,0-2.5,1.1c-0.9,1.1-1.3,2.1-0.6,2.6
					C216.3,612.8,217.2,612.5,218.3,611.2z"/>
			</g>
			<line class="st12" x1="312" y1="641.8" x2="307.9" y2="653"/>
			<g class="st1">
				<path class="st7" d="M311.8,661.3l-0.2,0.5l-0.8,0.4c-1.9,0.8-2.8,1.3-3.1,2.1c-0.2,0.6-0.1,1.2,0.7,1.5c0.5,0.2,1,0.1,1.3,0
					l0,0.6c-0.5,0.2-1.1,0.2-1.8,0c-1.2-0.4-1.4-1.4-1.1-2.2c0.4-1,1.4-1.6,3-2.3l0.6-0.2l0,0l-2.5-0.9l0.2-0.6L311.8,661.3z"/>
				<path class="st7" d="M302.8,661.2c0.7-1.9,1.8-2.7,3-2.2c1.1,0.4,1.4,1.7,0.8,3.5c-0.7,1.9-1.8,2.6-3,2.2
					C302.4,664.3,302.2,663,302.8,661.2z M305.8,662.2c0.5-1.4,0.4-2.4-0.3-2.7c-0.8-0.3-1.5,0.5-2,1.9c-0.5,1.4-0.5,2.4,0.3,2.7
					C304.5,664.4,305.3,663.7,305.8,662.2z"/>
				<path class="st7" d="M298.4,659.6c0.7-1.9,1.8-2.7,3-2.2c1.1,0.4,1.4,1.7,0.8,3.5c-0.7,1.9-1.8,2.6-3,2.2
					C298.1,662.7,297.8,661.4,298.4,659.6z M301.5,660.7c0.5-1.4,0.4-2.4-0.3-2.7c-0.8-0.3-1.5,0.5-2,1.9c-0.5,1.4-0.5,2.4,0.3,2.7
					C300.2,662.8,300.9,662.2,301.5,660.7z"/>
			</g>
			<line class="st12" x1="400" y1="657.3" x2="400" y2="669.2"/>
			<g class="st1">
				<path class="st7" d="M404.8,680.9L404.8,680.9l1-0.6l0.2,0.6l-1.3,0.7h-0.7v-5.9h0.8V680.9z"/>
				<path class="st7" d="M402,677.2c0,0.7-0.4,1.3-1.2,1.6l0,0c0.7,0.3,0.9,0.8,0.9,1.3c0,0.9-0.8,1.6-1.8,1.6
					c-1.1,0-1.7-0.7-1.7-1.4c0-0.5,0.2-1,1-1.4v0c-0.7-0.3-1.2-0.8-1.2-1.5c0-1,0.9-1.7,2-1.7C401.2,675.6,402,676.4,402,677.2z
					 M398.8,677.2c0,0.7,0.5,1.1,1.3,1.3c0.7-0.2,1.1-0.7,1.1-1.2c0-0.6-0.4-1.1-1.2-1.1C399.3,676.2,398.8,676.6,398.8,677.2z
					 M401,680.2c0-0.6-0.4-0.9-1.1-1.1c-0.5,0.2-0.9,0.5-0.9,1.1c0,0.5,0.3,1,1,1C400.6,681.1,401,680.7,401,680.2z"/>
				<path class="st7" d="M393.4,678.7c0-2,0.7-3.1,2-3.1c1.1,0,1.9,1.1,1.9,3c0,2-0.8,3.1-2,3.1
					C394.1,681.7,393.4,680.6,393.4,678.7z M396.6,678.6c0-1.5-0.5-2.4-1.2-2.4c-0.8,0-1.2,0.9-1.2,2.5c0,1.4,0.4,2.4,1.2,2.4
					C396.1,681.1,396.6,680.2,396.6,678.6z"/>
			</g>
			<line class="st12" x1="488" y1="641.8" x2="492.1" y2="653"/>
			<g class="st1">
				<path class="st7" d="M500.6,662.3L500.6,662.3l0.8-0.9l0.4,0.5l-1,1.1l-0.6,0.2l-2-5.5l0.7-0.3L500.6,662.3z"/>
				<path class="st7" d="M494.8,664.6c0.2,0,0.3-0.1,0.5-0.2c1.1-0.6,1.4-1.7,1.2-2.7l0,0c-0.1,0.4-0.5,0.9-1.1,1.1
					c-1,0.4-1.9-0.1-2.3-1.2c-0.4-1,0-2.2,1.1-2.6c1.2-0.4,2.3,0.2,2.8,1.6c0.4,1.1,0.3,2.1,0,2.8c-0.3,0.6-0.8,1.1-1.5,1.5
					c-0.2,0.1-0.4,0.2-0.5,0.2L494.8,664.6z M493.8,661.3c0.3,0.8,0.9,1.1,1.6,0.9c0.4-0.2,0.8-0.6,0.8-1.1c0-0.1,0-0.2,0-0.4
					c-0.3-0.9-1-1.4-1.8-1.1C493.8,659.8,493.5,660.5,493.8,661.3z"/>
				<path class="st7" d="M489.1,664.2c-0.7-1.9-0.4-3.2,0.9-3.6c1.1-0.4,2.2,0.4,2.9,2.2c0.7,1.9,0.2,3.2-0.9,3.6
					C490.8,666.7,489.7,665.9,489.1,664.2z M492.1,663c-0.5-1.4-1.3-2.1-1.9-1.8c-0.8,0.3-0.8,1.3-0.3,2.7c0.5,1.4,1.2,2.1,1.9,1.8
					C492.4,665.5,492.6,664.5,492.1,663z"/>
			</g>
			<line class="st12" x1="565.4" y1="597.1" x2="573" y2="606.2"/>
			<g class="st1">
				<path class="st7" d="M584.2,612L584.2,612l0.4-1.1l0.5,0.4l-0.5,1.4l-0.5,0.4l-3.8-4.5l0.6-0.5L584.2,612z"/>
				<path class="st7" d="M576.8,611.6l1,1.2l2.1-1.8l0.3,0.4l0.4,4.6l-0.7,0.6l-2.3-2.8l-0.6,0.5l-0.4-0.5l0.6-0.5l-1-1.2
					L576.8,611.6z M578.2,613.3l1.3,1.5c0.2,0.2,0.4,0.5,0.6,0.7l0,0c-0.1-0.4-0.1-0.7-0.2-1l-0.2-2.5l0,0L578.2,613.3z"/>
				<path class="st7" d="M574.1,617.8c-1.3-1.5-1.4-2.9-0.4-3.7c0.9-0.7,2.2-0.4,3.4,1.1c1.3,1.5,1.3,2.9,0.4,3.7
					C576.5,619.6,575.3,619.2,574.1,617.8z M576.5,615.7c-1-1.2-1.9-1.5-2.5-1.1c-0.6,0.5-0.3,1.5,0.7,2.6c0.9,1.1,1.8,1.6,2.5,1.1
					C577.7,617.9,577.5,616.9,576.5,615.7z"/>
			</g>
			<line class="st12" x1="622.8" y1="528.6" x2="633.1" y2="534.6"/>
			<g class="st1">
				<path class="st7" d="M645.6,536.3L645.6,536.3l0-1.2l0.6,0.2l0,1.5l-0.3,0.6l-5.1-2.9l0.4-0.7L645.6,536.3z"/>
				<path class="st7" d="M639.7,536.2l0.4,0.2l0.2,0.8c0.5,2,0.8,3,1.6,3.4c0.5,0.3,1.1,0.3,1.6-0.4c0.3-0.5,0.3-1,0.2-1.3l0.6,0.1
					c0.1,0.5,0,1.2-0.3,1.7c-0.6,1.1-1.7,1.1-2.4,0.7c-0.9-0.5-1.3-1.7-1.7-3.3l-0.1-0.6l0,0l-1.3,2.3l-0.6-0.3L639.7,536.2z"/>
				<path class="st7" d="M638.1,545.1c-1.7-1-2.3-2.2-1.7-3.3c0.6-1,1.9-1.1,3.6-0.2c1.7,1,2.2,2.3,1.6,3.3
					C641,546,639.7,546,638.1,545.1z M639.6,542.3c-1.3-0.8-2.3-0.8-2.7-0.2c-0.4,0.7,0.2,1.5,1.5,2.3c1.3,0.7,2.3,0.9,2.7,0.2
					C641.5,544,641,543.1,639.6,542.3z"/>
			</g>
			<line class="st12" x1="653.4" y1="444.7" x2="665.1" y2="446.7"/>
			<g class="st1">
				<path class="st7" d="M677.4,444L677.4,444l-0.4-1.1l0.6,0l0.5,1.4l-0.1,0.7l-5.8-1l0.1-0.8L677.4,444z"/>
				<path class="st7" d="M674.1,450.4c-2-0.3-2.9-1.3-2.7-2.5c0.2-1.1,1.4-1.7,3.3-1.4c1.9,0.3,2.9,1.4,2.7,2.5
					C677.2,450.2,676,450.7,674.1,450.4z M674.6,447.2c-1.5-0.3-2.4,0-2.6,0.8c-0.1,0.8,0.7,1.3,2.2,1.6c1.4,0.3,2.4,0.1,2.6-0.8
					C676.9,448.1,676.2,447.5,674.6,447.2z"/>
				<path class="st7" d="M673.3,454.9c-2-0.3-2.9-1.3-2.7-2.5c0.2-1.1,1.4-1.7,3.3-1.4c1.9,0.3,2.9,1.4,2.7,2.5
					C676.4,454.7,675.2,455.3,673.3,454.9z M673.8,451.8c-1.5-0.3-2.4,0-2.6,0.8c-0.1,0.8,0.7,1.3,2.2,1.6c1.4,0.3,2.4,0.1,2.6-0.8
					C676.1,452.7,675.4,452,673.8,451.8z"/>
			</g>
			<line class="st12" x1="653.4" y1="355.3" x2="665.1" y2="353.3"/>
			<g class="st1">
				<path class="st7" d="M672.1,346.7c0.7-0.1,1.3,0.2,1.8,0.9l0,0c0.2-0.7,0.6-1.1,1.1-1.1c0.9-0.2,1.7,0.5,1.9,1.5
					c0.2,1.1-0.4,1.8-1.1,1.9c-0.5,0.1-1.1-0.1-1.5-0.7l0,0c-0.2,0.8-0.6,1.3-1.3,1.4c-1,0.2-1.8-0.6-2-1.7
					C670.6,347.7,671.2,346.8,672.1,346.7z M672.7,349.8c0.7-0.1,1-0.7,1-1.5c-0.3-0.6-0.8-0.9-1.4-0.8c-0.6,0.1-1,0.6-0.9,1.4
					C671.6,349.5,672.1,349.9,672.7,349.8z M675.2,347.1c-0.6,0.1-0.8,0.6-0.9,1.3c0.3,0.5,0.7,0.8,1.2,0.7c0.5-0.1,0.9-0.4,0.8-1.1
					C676.2,347.3,675.7,347,675.2,347.1z"/>
				<path class="st7" d="M675.1,354.9c-2,0.3-3.2-0.2-3.4-1.5c-0.2-1.1,0.7-2.1,2.6-2.4c1.9-0.3,3.2,0.3,3.4,1.5
					C677.9,353.7,676.9,354.6,675.1,354.9z M674.4,351.8c-1.5,0.3-2.3,0.9-2.2,1.6c0.1,0.8,1.1,1,2.6,0.8c1.4-0.3,2.3-0.8,2.2-1.6
					C676.9,351.8,676,351.5,674.4,351.8z"/>
			</g>
			<line class="st12" x1="622.8" y1="271.4" x2="633.1" y2="265.4"/>
			<g class="st1">
				<path class="st7" d="M642.9,258.7c-0.1-0.1-0.2-0.3-0.3-0.5c-0.8-1-1.9-1.1-2.8-0.7l0,0c0.5,0.1,1,0.3,1.3,0.9
					c0.5,0.9,0.2,1.9-0.8,2.5c-0.9,0.5-2.2,0.4-2.8-0.7c-0.6-1.1-0.2-2.3,1.1-3.1c1-0.6,2-0.7,2.8-0.5c0.7,0.2,1.2,0.6,1.7,1.2
					c0.1,0.2,0.3,0.4,0.3,0.5L642.9,258.7z M639.9,260.2c0.7-0.4,0.9-1.1,0.6-1.7c-0.2-0.4-0.7-0.6-1.2-0.6c-0.1,0-0.2,0-0.4,0.1
					c-0.8,0.5-1.2,1.2-0.8,2C638.4,260.5,639.2,260.6,639.9,260.2z"/>
				<path class="st7" d="M643.5,264.4c-1.7,1-3.1,0.9-3.7-0.2c-0.6-1,0-2.2,1.6-3.2c1.7-1,3.1-0.8,3.7,0.2
					C645.8,262.3,645.2,263.4,643.5,264.4z M641.9,261.7c-1.3,0.8-1.8,1.6-1.5,2.2c0.4,0.7,1.4,0.6,2.7-0.2c1.3-0.7,1.9-1.5,1.5-2.2
					C644.2,260.9,643.2,260.9,641.9,261.7z"/>
			</g>
			<line class="st12" x1="565.4" y1="202.9" x2="573" y2="193.8"/>
			<g class="st1">
				<path class="st7" d="M575.9,187.6l1-1.2l-2.1-1.8l0.3-0.4l4.4-1.2l0.7,0.6l-2.3,2.8l0.6,0.5l-0.4,0.5l-0.6-0.5l-1,1.2
					L575.9,187.6z M577.3,185.9l1.3-1.5c0.2-0.2,0.4-0.5,0.6-0.7l0,0c-0.4,0.1-0.6,0.2-0.9,0.4l-2.4,0.6l0,0L577.3,185.9z"/>
				<path class="st7" d="M582.5,189.3c-1.3,1.5-2.6,1.9-3.6,1.1c-0.9-0.7-0.8-2.1,0.5-3.6c1.3-1.5,2.6-1.8,3.5-1
					C583.8,186.5,583.7,187.8,582.5,189.3z M580,187.3c-1,1.2-1.2,2.1-0.6,2.6c0.6,0.5,1.5,0,2.5-1.1c0.9-1.1,1.3-2.1,0.6-2.6
					C581.9,185.7,581,186,580,187.3z"/>
			</g>
			<line class="st12" x1="488" y1="158.2" x2="492.1" y2="147"/>
			<g class="st1">
				<path class="st7" d="M490.3,139.5l0.2-0.5l0.8-0.4c1.9-0.8,2.8-1.3,3.1-2.1c0.2-0.6,0.1-1.2-0.7-1.5c-0.5-0.2-1-0.1-1.3,0l0-0.6
					c0.5-0.2,1.1-0.2,1.8,0c1.2,0.4,1.4,1.4,1.1,2.2c-0.4,1-1.4,1.6-3,2.3l-0.6,0.2l0,0l2.5,0.9l-0.2,0.6L490.3,139.5z"/>
				<path class="st7" d="M499.4,139.6c-0.7,1.9-1.8,2.7-3,2.2c-1.1-0.4-1.4-1.7-0.8-3.5c0.7-1.9,1.8-2.6,3-2.2
					C499.7,136.5,500,137.8,499.4,139.6z M496.4,138.6c-0.5,1.4-0.4,2.4,0.3,2.7c0.8,0.3,1.5-0.5,2-1.9c0.5-1.4,0.5-2.4-0.3-2.7
					C497.7,136.4,496.9,137.1,496.4,138.6z"/>
			</g>
		</g>
		<g>
			<g>
				<path class="st13" d="M400,172c98.3,0,182.3,62.6,214.3,150l9.6-3.5c-33.3-91.4-121-156.7-223.9-156.7V172z"/>
				<path class="st13" d="M400,628c-98.3,0-182.3-62.6-214.3-150l-9.6,3.5c33.3,91.4,121,156.7,223.9,156.7V628z"/>
			</g>
			<line class="st14" x1="624.8" y1="326.9" x2="175.2" y2="473.1"/>
		</g>
		<path class="st15" d="M225.1,400h9.4c0-91.4,74.1-165.5,165.5-165.5c51.3,0,97.2,23.4,127.6,60c23.7,28.6,37.9,65.4,37.9,105.5
			c0,91.4-74.1,165.5-165.5,165.5c-50.5,0-95.7-22.6-126-58.2l-0.8-0.9l-7.2,6"/>
	</g>
</g>
</svg>
