<?xml version="1.0" encoding="utf-8"?>
<!-- Generator: Adobe Illustrator 24.0.0, SVG Export Plug-In . SVG Version: 6.00 Build 0)  -->
<svg version="1.1" id="Layer_1" xmlns="http://www.w3.org/2000/svg" xmlns:xlink="http://www.w3.org/1999/xlink" x="0px" y="0px"
	 viewBox="0 0 100 100" style="enable-background:new 0 0 100 100;" xml:space="preserve">
<style type="text/css">
	.st0{fill:#FFFFFF;}
</style>
<path class="st0" d="M86.4,5H13.6C8.9,5,5,8.9,5,13.6v72.9c0,4.7,3.9,8.6,8.6,8.6h72.9c4.7,0,8.6-3.9,8.6-8.6V13.6
	C95,8.9,91.1,5,86.4,5z M32.3,82.7c-0.2,1.5-1,2.5-2.6,2.5c-3.3,0.1-6.6,0.1-10,0c-1.7,0-2.5-1.1-2.5-2.8c0-6.9,0-13.9,0-20.8
	c0-6.9,0-13.8,0-20.7c0-2,0.9-2.9,2.9-2.9c3.1,0,6.3,0,9.4,0c1.6,0,2.6,0.8,2.7,2.5c0,0.3,0,0.6,0,1c0,13.4,0,26.9,0,40.3
	C32.3,82,32.3,82.4,32.3,82.7z M24.7,34.2c-5.3,0-9.7-4.4-9.7-9.7c0-5.3,4.4-9.7,9.7-9.7c5.3,0,9.7,4.4,9.7,9.7
	C34.4,29.8,29.9,34.2,24.7,34.2z M83.7,84.9c-0.4,0.2-1,0.3-1.5,0.3c-3.3,0-6.6,0-9.9,0c-1.9,0-2.7-0.9-2.7-2.8c0-7.3,0-14.5,0-21.8
	c0-1.9-0.2-3.8-0.8-5.6c-0.9-3-3.2-4.7-6.3-4.8c-2.7-0.1-5,0.7-6.6,3c-0.9,1.3-1.4,2.7-1.7,4.2c-0.2,1.2-0.4,2.4-0.4,3.6
	c0,7.1,0,14.2,0,21.3c0,1.9-0.9,2.9-2.8,2.9c-3.1,0-6.2,0-9.4,0c-1.9,0-2.9-1-2.9-2.9c0-13.8,0-27.7,0-41.5c0-1.5,1-2.9,2.8-2.8
	c3.2,0.1,6.5,0,9.7,0c1.7,0,2.6,0.9,2.6,2.6c0,0.9,0,1.9,0,2.7c0.9-0.9,1.8-1.9,2.8-2.7c2-1.7,4.3-2.6,6.9-3c2.8-0.5,5.5-0.5,8.3,0
	c4.1,0.7,7.4,2.6,9.7,6.2c1.6,2.5,2.6,5.3,2.9,8.2c0.3,2.6,0.6,5.3,0.6,8c0.1,7.4,0.1,14.9,0.1,22.3C85,83.3,84.8,84.3,83.7,84.9z"
	/>
</svg>
