<?xml version="1.0" encoding="utf-8"?>
<!-- Generator: Adobe Illustrator 24.0.0, SVG Export Plug-In . SVG Version: 6.00 Build 0)  -->
<svg version="1.1" id="Layer_1" xmlns="http://www.w3.org/2000/svg" xmlns:xlink="http://www.w3.org/1999/xlink" x="0px" y="0px"
	 viewBox="0 0 40 40" style="enable-background:new 0 0 40 40;" xml:space="preserve">
<style type="text/css">
	.st0{display:none;}
	.st1{display:inline;}
	.st2{fill:#808080;}
	.st3{fill:none;stroke:#808080;stroke-width:1.026;stroke-linecap:round;stroke-miterlimit:10;}
	.st4{fill:#FFFFFF;}
	.st5{fill:none;stroke:#FFFFFF;stroke-width:1.026;stroke-linecap:round;stroke-miterlimit:10;}
</style>
<g class="st0">
	<g class="st1">
		<path class="st2" d="M20,1c10.5,0,19,8.5,19,19s-8.5,19-19,19S1,30.5,1,20S9.5,1,20,1 M20,0C9,0,0,9,0,20s9,20,20,20s20-9,20-20
			S31,0,20,0L20,0z"/>
	</g>
	<g class="st1">
		<line class="st3" x1="10" y1="14" x2="30" y2="14"/>
		<line class="st3" x1="10" y1="20" x2="30" y2="20"/>
		<line class="st3" x1="10" y1="26" x2="30" y2="26"/>
	</g>
</g>
<g>
	<g>
		<path class="st4" d="M20,1c10.5,0,19,8.5,19,19s-8.5,19-19,19S1,30.5,1,20S9.5,1,20,1 M20,0C9,0,0,9,0,20s9,20,20,20s20-9,20-20
			S31,0,20,0L20,0z"/>
	</g>
	<g>
		<line class="st5" x1="10" y1="14" x2="30" y2="14"/>
		<line class="st5" x1="10" y1="20" x2="30" y2="20"/>
		<line class="st5" x1="10" y1="26" x2="30" y2="26"/>
	</g>
</g>
</svg>
