<?xml version="1.0" encoding="utf-8"?>
<!-- Generator: Adobe Illustrator 24.0.0, SVG Export Plug-In . SVG Version: 6.00 Build 0)  -->
<svg version="1.1" xmlns="http://www.w3.org/2000/svg" xmlns:xlink="http://www.w3.org/1999/xlink" x="0px" y="0px"
	 viewBox="0 0 100 100" style="enable-background:new 0 0 100 100;" xml:space="preserve">
<style type="text/css">
	.st0{display:none;}
	.st1{display:inline;fill:#FFFFFF;}
	.st2{fill:#FFFFFF;}
</style>
<g id="Layer_1" class="st0">
	<path class="st1" d="M86.4,5H13.6C8.9,5,5,8.9,5,13.6v72.9c0,4.7,3.9,8.6,8.6,8.6h72.9c4.7,0,8.6-3.9,8.6-8.6V13.6
		C95,8.9,91.1,5,86.4,5z M32.3,82.7c-0.2,1.5-1,2.5-2.6,2.5c-3.3,0.1-6.6,0.1-10,0c-1.7,0-2.5-1.1-2.5-2.8c0-6.9,0-13.9,0-20.8
		c0-6.9,0-13.8,0-20.7c0-2,0.9-2.9,2.9-2.9c3.1,0,6.3,0,9.4,0c1.6,0,2.6,0.8,2.7,2.5c0,0.3,0,0.6,0,1c0,13.4,0,26.9,0,40.3
		C32.3,82,32.3,82.4,32.3,82.7z M24.7,34.2c-5.3,0-9.7-4.4-9.7-9.7c0-5.3,4.4-9.7,9.7-9.7c5.3,0,9.7,4.4,9.7,9.7
		C34.4,29.8,29.9,34.2,24.7,34.2z M83.7,84.9c-0.4,0.2-1,0.3-1.5,0.3c-3.3,0-6.6,0-9.9,0c-1.9,0-2.7-0.9-2.7-2.8
		c0-7.3,0-14.5,0-21.8c0-1.9-0.2-3.8-0.8-5.6c-0.9-3-3.2-4.7-6.3-4.8c-2.7-0.1-5,0.7-6.6,3c-0.9,1.3-1.4,2.7-1.7,4.2
		c-0.2,1.2-0.4,2.4-0.4,3.6c0,7.1,0,14.2,0,21.3c0,1.9-0.9,2.9-2.8,2.9c-3.1,0-6.2,0-9.4,0c-1.9,0-2.9-1-2.9-2.9
		c0-13.8,0-27.7,0-41.5c0-1.5,1-2.9,2.8-2.8c3.2,0.1,6.5,0,9.7,0c1.7,0,2.6,0.9,2.6,2.6c0,0.9,0,1.9,0,2.7c0.9-0.9,1.8-1.9,2.8-2.7
		c2-1.7,4.3-2.6,6.9-3c2.8-0.5,5.5-0.5,8.3,0c4.1,0.7,7.4,2.6,9.7,6.2c1.6,2.5,2.6,5.3,2.9,8.2c0.3,2.6,0.6,5.3,0.6,8
		c0.1,7.4,0.1,14.9,0.1,22.3C85,83.3,84.8,84.3,83.7,84.9z"/>
</g>
<g id="Layer_2">
	<path class="st2" d="M86.4,5H13.6C8.9,5,5,8.9,5,13.6v72.9c0,4.7,3.9,8.6,8.6,8.6h72.9c4.7,0,8.6-3.9,8.6-8.6V13.6
		C95,8.9,91.1,5,86.4,5z M82.1,32.4c-0.9,0.9-2,1.7-2.9,2.6c-0.2,0.2-0.4,0.5-0.4,0.8c0.1,5.5-0.8,10.8-2.6,15.9
		c-1.2,3.3-2.8,6.4-4.8,9.4c-3.4,5.1-7.7,9.3-12.9,12.5C52.8,77,46.6,78.8,40,79.3c-6.1,0.5-12.1-0.3-17.9-2.4
		c-2.6-1-5.1-2.4-7.6-3.7c-0.1-0.1-0.2-0.2-0.5-0.4c8.1,0.7,15.2-1.3,21.6-6.1c-6.8-0.7-11.3-4-13.8-10.4c2.2,0.3,4.3,0.3,6.4-0.2
		c-8.6-2.3-11.8-9.8-11.6-14.6c1,0.4,2.1,0.8,3.1,1.1c1,0.3,2.1,0.4,3.2,0.6c-6.4-5.5-7.9-12-4.3-19.8c8.1,9.5,18.2,14.7,30.6,15.6
		c-0.1-0.8-0.2-1.5-0.2-2.2c-0.5-6.9,3.5-13.1,10.1-15.2c5.4-1.8,10.3-0.7,14.6,3.1c0.7,0.6,1.3,0.8,2.2,0.5
		c2.5-0.7,4.9-1.5,7.2-2.8c0.2-0.1,0.5-0.2,0.9-0.4c-0.5,1.8-1.3,3.3-2.4,4.6c-1.1,1.2-2.4,2.4-3.5,3.5c2.6-0.3,5.2-1.1,7.7-2.1
		c0.1,0.1,0.1,0.2,0.2,0.2C84.7,29.5,83.4,31,82.1,32.4z"/>
</g>
</svg>
